<svg version="1.1" xmlns="http://www.w3.org/2000/svg" xmlns:xlink="http://www.w3.org/1999/xlink" width="600" height="600"><defs><clipPath id="AMBrgVGQgJKt"><path fill="none" stroke="none" d="M 39.5 28.5 L 570.5 28.5 L 570.5 578.5 L 39.5 578.5 L 39.5 28.5"/></clipPath><clipPath id="ukIGzXJKLghq"><path fill="none" stroke="none" d="M 39.5 28.5 L 570.5 28.5 L 570.5 578.5 L 39.5 578.5 L 39.5 28.5"/></clipPath><clipPath id="FlVhaaKwbmTs"><path fill="none" stroke="none" d="M 39.5 28.5 L 570.5 28.5 L 570.5 578.5 L 39.5 578.5 L 39.5 28.5"/></clipPath><clipPath id="LTuKgKuHHfbi"><path fill="none" stroke="none" d="M 39.5 28.5 L 570.5 28.5 L 570.5 578.5 L 39.5 578.5 L 39.5 28.5"/></clipPath><clipPath id="eyTueEzQlyAk"><path fill="none" stroke="none" d="M 39.5 28.5 L 570.5 28.5 L 570.5 578.5 L 39.5 578.5 L 39.5 28.5"/></clipPath><clipPath id="nXuhNLxECJIs"><path fill="none" stroke="none" d="M 39.5 28.5 L 570.5 28.5 L 570.5 578.5 L 39.5 578.5 L 39.5 28.5"/></clipPath><clipPath id="iNhBegFgCilN"><path fill="none" stroke="none" d="M 39.5 28.5 L 570.5 28.5 L 570.5 578.5 L 39.5 578.5 L 39.5 28.5"/></clipPath><clipPath id="JLvzRlddNzaV"><path fill="none" stroke="none" d="M 39.5 28.5 L 570.5 28.5 L 570.5 578.5 L 39.5 578.5 L 39.5 28.5"/></clipPath><clipPath id="cGxcWhqlMQQH"><path fill="none" stroke="none" d="M 39.5 28.5 L 570.5 28.5 L 570.5 578.5 L 39.5 578.5 L 39.5 28.5"/></clipPath></defs><path fill="rgb(255,255,255)" stroke="none" paint-order="stroke" d="M 0.5 0.5 L 600.5 0.5 L 600.5 600.5 L 0.5 600.5 L 0.5 0.5" fill-opacity="1"/><rect fill="#FFFFFF" stroke="none" x="39" y="28" width="531" height="550" transform="matrix(1, 0, 0, 1, 0.5, 0.5)"/><path fill="rgb(255,255,255)" stroke="none" paint-order="stroke" d="M 39.5 28.5 L 570.5 28.5 L 570.5 578.5 L 39.5 578.5 L 39.5 28.5" fill-opacity="1"/><path fill="none" stroke="rgb(229,229,229)" paint-order="fill" d="M 39.5 28.5 L 570.5 28.5 L 570.5 578.5 L 39.5 578.5 L 39.5 28.5" stroke-opacity="1" stroke-linejoin="bevel" stroke-miterlimit="10" stroke-dasharray=""/><path fill="none" stroke="rgb(229,229,229)" paint-order="fill" d="M 89.5 578.5 L 89.5 28.5 M 170.5 578.5 L 170.5 28.5 M 251.5 578.5 L 251.5 28.5 M 332.5 578.5 L 332.5 28.5 M 413.5 578.5 L 413.5 28.5 M 494.5 578.5 L 494.5 28.5" stroke-opacity="1" stroke-linejoin="bevel" stroke-miterlimit="10" stroke-dasharray="" clip-path="url(#AMBrgVGQgJKt)"/><path fill="none" stroke="rgb(229,229,229)" paint-order="fill" d="M 39.5 532.5 L 570.5 532.5 M 39.5 411.5 L 570.5 411.5 M 39.5 291.5 L 570.5 291.5 M 39.5 170.5 L 570.5 170.5 M 39.5 49.5 L 570.5 49.5" stroke-opacity="1" stroke-linejoin="bevel" stroke-miterlimit="10" stroke-dasharray="" clip-path="url(#ukIGzXJKLghq)"/><path fill="none" stroke="none"/><path fill="rgb(41,120,142)" stroke="none" paint-order="stroke" d="M 494.38421630859375 392.07501220703125 A 2 2 0 1 1 494.3842153085938 392.07301220736457" fill-opacity="0.8" clip-path="url(#FlVhaaKwbmTs)"/><path fill="rgb(41,120,142)" stroke="none" paint-order="stroke" d="M 323.51312255859375 373.6835021972656 A 2 2 0 1 1 323.5131215585938 373.68150219759895" fill-opacity="0.8" clip-path="url(#FlVhaaKwbmTs)"/><path fill="rgb(41,120,142)" stroke="none" paint-order="stroke" d="M 324.9091796875 180.5751495361328 A 2 2 0 1 1 324.90917868750006 180.57314953646613" fill-opacity="0.8" clip-path="url(#FlVhaaKwbmTs)"/><path fill="rgb(41,120,142)" stroke="none" paint-order="stroke" d="M 307.36224365234375 539.302978515625 A 2 2 0 1 1 307.3622426523438 539.3009785159584" fill-opacity="0.8" clip-path="url(#FlVhaaKwbmTs)"/><path fill="rgb(41,120,142)" stroke="none" paint-order="stroke" d="M 65.6363639831543 196.8828125 A 2 2 0 1 1 65.63636298315438 196.88081250033332" fill-opacity="0.8" clip-path="url(#FlVhaaKwbmTs)"/><path fill="rgb(41,120,142)" stroke="none" paint-order="stroke" d="M 189.1892547607422 365.8351135253906 A 2 2 0 1 1 189.18925376074228 365.83311352572395" fill-opacity="0.8" clip-path="url(#FlVhaaKwbmTs)"/><path fill="rgb(41,120,142)" stroke="none" paint-order="stroke" d="M 348.19281005859375 150.91238403320312 A 2 2 0 1 1 348.1928090585938 150.91038403353645" fill-opacity="0.8" clip-path="url(#FlVhaaKwbmTs)"/><path fill="rgb(41,120,142)" stroke="none" paint-order="stroke" d="M 359.4194641113281 118.5743408203125 A 2 2 0 1 1 359.4194631113282 118.57234082064583" fill-opacity="0.8" clip-path="url(#FlVhaaKwbmTs)"/><path fill="rgb(41,120,142)" stroke="none" paint-order="stroke" d="M 121.5063247680664 206.32077026367188 A 2 2 0 1 1 121.5063237680665 206.3187702640052" fill-opacity="0.8" clip-path="url(#FlVhaaKwbmTs)"/><path fill="rgb(41,120,142)" stroke="none" paint-order="stroke" d="M 390.94329833984375 357.7202453613281 A 2 2 0 1 1 390.9432973398438 357.71824536166145" fill-opacity="0.8" clip-path="url(#FlVhaaKwbmTs)"/><path fill="rgb(41,120,142)" stroke="none" paint-order="stroke" d="M 316.9938659667969 99.17436981201172 A 2 2 0 1 1 316.99386496679693 99.17236981234505" fill-opacity="0.8" clip-path="url(#FlVhaaKwbmTs)"/><path fill="rgb(41,120,142)" stroke="none" paint-order="stroke" d="M 293.9920959472656 553.5 A 2 2 0 1 1 293.9920949472657 553.4980000003334" fill-opacity="0.8" clip-path="url(#FlVhaaKwbmTs)"/><path fill="rgb(41,120,142)" stroke="none" paint-order="stroke" d="M 228.25509643554688 385.11712646484375 A 2 2 0 1 1 228.25509543554696 385.11512646517707" fill-opacity="0.8" clip-path="url(#FlVhaaKwbmTs)"/><path fill="rgb(41,120,142)" stroke="none" paint-order="stroke" d="M 339.0709228515625 328.5079040527344 A 2 2 0 1 1 339.07092185156256 328.5059040530677" fill-opacity="0.8" clip-path="url(#FlVhaaKwbmTs)"/><path fill="rgb(41,120,142)" stroke="none" paint-order="stroke" d="M 130.2952651977539 439.19415283203125 A 2 2 0 1 1 130.295264197754 439.19215283236457" fill-opacity="0.8" clip-path="url(#FlVhaaKwbmTs)"/><path fill="rgb(41,120,142)" stroke="none" paint-order="stroke" d="M 361.1316223144531 336.5580749511719 A 2 2 0 1 1 361.1316213144532 336.5560749515052" fill-opacity="0.8" clip-path="url(#FlVhaaKwbmTs)"/><path fill="rgb(41,120,142)" stroke="none" paint-order="stroke" d="M 147.05516052246094 420.1725769042969 A 2 2 0 1 1 147.05515952246103 420.1705769046302" fill-opacity="0.8" clip-path="url(#FlVhaaKwbmTs)"/><path fill="rgb(41,120,142)" stroke="none" paint-order="stroke" d="M 85.53404235839844 199.8742218017578 A 2 2 0 1 1 85.53404135839853 199.87222180209113" fill-opacity="0.8" clip-path="url(#FlVhaaKwbmTs)"/><path fill="rgb(41,120,142)" stroke="none" paint-order="stroke" d="M 312.0856018066406 206.24400329589844 A 2 2 0 1 1 312.0856008066407 206.24200329623176" fill-opacity="0.8" clip-path="url(#FlVhaaKwbmTs)"/><path fill="rgb(41,120,142)" stroke="none" paint-order="stroke" d="M 331.94122314453125 135.6092529296875 A 2 2 0 1 1 331.9412221445313 135.60725293002082" fill-opacity="0.8" clip-path="url(#FlVhaaKwbmTs)"/><path fill="rgb(41,120,142)" stroke="none" paint-order="stroke" d="M 164.09571838378906 366.8341064453125 A 2 2 0 1 1 164.09571738378915 366.8321064456458" fill-opacity="0.8" clip-path="url(#FlVhaaKwbmTs)"/><path fill="rgb(41,120,142)" stroke="none" paint-order="stroke" d="M 523.8558349609375 397.4017639160156 A 2 2 0 1 1 523.8558339609376 397.39976391634895" fill-opacity="0.8" clip-path="url(#FlVhaaKwbmTs)"/><path fill="rgb(41,120,142)" stroke="none" paint-order="stroke" d="M 383.12152099609375 137.65823364257812 A 2 2 0 1 1 383.1215199960938 137.65623364291145" fill-opacity="0.8" clip-path="url(#FlVhaaKwbmTs)"/><path fill="rgb(41,120,142)" stroke="none" paint-order="stroke" d="M 548.3636474609375 400.4049377441406 A 2 2 0 1 1 548.3636464609376 400.40293774447395" fill-opacity="0.8" clip-path="url(#FlVhaaKwbmTs)"/><path fill="rgb(41,120,142)" stroke="none" paint-order="stroke" d="M 389.6084899902344 310.4173889160156 A 2 2 0 1 1 389.60848899023443 310.41538891634895" fill-opacity="0.8" clip-path="url(#FlVhaaKwbmTs)"/><path fill="rgb(41,120,142)" stroke="none" paint-order="stroke" d="M 265.8456726074219 386.0946350097656 A 2 2 0 1 1 265.84567160742193 386.09263501009895" fill-opacity="0.8" clip-path="url(#FlVhaaKwbmTs)"/><path fill="rgb(41,120,142)" stroke="none" paint-order="stroke" d="M 297.09942626953125 72.837646484375 A 2 2 0 1 1 297.0994252695313 72.83564648470833" fill-opacity="0.8" clip-path="url(#FlVhaaKwbmTs)"/><path fill="rgb(41,120,142)" stroke="none" paint-order="stroke" d="M 174.07647705078125 392.3132629394531 A 2 2 0 1 1 174.07647605078134 392.31126293978645" fill-opacity="0.8" clip-path="url(#FlVhaaKwbmTs)"/><path fill="rgb(41,120,142)" stroke="none" paint-order="stroke" d="M 280.10845947265625 53.5 A 2 2 0 1 1 280.1084584726563 53.498000000333334" fill-opacity="0.8" clip-path="url(#FlVhaaKwbmTs)"/><path fill="none" stroke="none"/><text fill="rgb(68,68,68)" stroke="none" font-family="helvetica" font-size="9pt" font-style="normal" font-weight="normal" text-decoration="normal" x="0" y="0" text-anchor="start" dominant-baseline="text-after-edge" transform="matrix(1, 0, 0, 1, 497.38421630859375, 387.07501220703125)" fill-opacity="1">open regions</text><path fill="none" stroke="none"/><text fill="rgb(68,68,68)" stroke="none" font-family="helvetica" font-size="9pt" font-style="normal" font-weight="normal" text-decoration="normal" x="0" y="0" text-anchor="start" dominant-baseline="text-after-edge" transform="matrix(1, 0, 0, 1, 326.51312255859375, 368.6835021972656)" fill-opacity="1">super_enhancer</text><path fill="none" stroke="none"/><text fill="rgb(68,68,68)" stroke="none" font-family="helvetica" font-size="9pt" font-style="normal" font-weight="normal" text-decoration="normal" x="0" y="0" text-anchor="start" dominant-baseline="text-after-edge" transform="matrix(1, 0, 0, 1, 327.9091796875, 175.5751495361328)" fill-opacity="1">FLAG_MEF2D</text><path fill="none" stroke="none"/><text fill="rgb(68,68,68)" stroke="none" font-family="helvetica" font-size="9pt" font-style="normal" font-weight="normal" text-decoration="normal" x="0" y="0" text-anchor="start" dominant-baseline="text-after-edge" transform="matrix(1, 0, 0, 1, 310.36224365234375, 534.302978515625)" fill-opacity="1">TFAP4</text><path fill="none" stroke="none"/><text fill="rgb(68,68,68)" stroke="none" font-family="helvetica" font-size="9pt" font-style="normal" font-weight="normal" text-decoration="normal" x="0" y="0" text-anchor="start" dominant-baseline="text-after-edge" transform="matrix(1, 0, 0, 1, 68.6363639831543, 191.8828125)" fill-opacity="1">FLI1</text><path fill="none" stroke="none"/><text fill="rgb(68,68,68)" stroke="none" font-family="helvetica" font-size="9pt" font-style="normal" font-weight="normal" text-decoration="normal" x="0" y="0" text-anchor="start" dominant-baseline="text-after-edge" transform="matrix(1, 0, 0, 1, 192.1892547607422, 360.8351135253906)" fill-opacity="1">RUNX1</text><path fill="none" stroke="none"/><text fill="rgb(68,68,68)" stroke="none" font-family="helvetica" font-size="9pt" font-style="normal" font-weight="normal" text-decoration="normal" x="0" y="0" text-anchor="start" dominant-baseline="text-after-edge" transform="matrix(1, 0, 0, 1, 351.19281005859375, 145.91238403320312)" fill-opacity="1">MAX</text><path fill="none" stroke="none"/><text fill="rgb(68,68,68)" stroke="none" font-family="helvetica" font-size="9pt" font-style="normal" font-weight="normal" text-decoration="normal" x="0" y="0" text-anchor="start" dominant-baseline="text-after-edge" transform="matrix(1, 0, 0, 1, 362.4194641113281, 113.5743408203125)" fill-opacity="1">LMO2</text><path fill="none" stroke="none"/><text fill="rgb(68,68,68)" stroke="none" font-family="helvetica" font-size="9pt" font-style="normal" font-weight="normal" text-decoration="normal" x="0" y="0" text-anchor="start" dominant-baseline="text-after-edge" transform="matrix(1, 0, 0, 1, 124.5063247680664, 201.32077026367188)" fill-opacity="1">PLAGL2</text><path fill="none" stroke="none"/><text fill="rgb(68,68,68)" stroke="none" font-family="helvetica" font-size="9pt" font-style="normal" font-weight="normal" text-decoration="normal" x="0" y="0" text-anchor="start" dominant-baseline="text-after-edge" transform="matrix(1, 0, 0, 1, 393.94329833984375, 352.7202453613281)" fill-opacity="1">FOSL2</text><path fill="none" stroke="none"/><text fill="rgb(68,68,68)" stroke="none" font-family="helvetica" font-size="9pt" font-style="normal" font-weight="normal" text-decoration="normal" x="0" y="0" text-anchor="start" dominant-baseline="text-after-edge" transform="matrix(1, 0, 0, 1, 319.9938659667969, 94.17436981201172)" fill-opacity="1">SP1</text><path fill="none" stroke="none"/><text fill="rgb(68,68,68)" stroke="none" font-family="helvetica" font-size="9pt" font-style="normal" font-weight="normal" text-decoration="normal" x="0" y="0" text-anchor="start" dominant-baseline="text-after-edge" transform="matrix(1, 0, 0, 1, 296.9920959472656, 548.5)" fill-opacity="1">RXRA</text><path fill="none" stroke="none"/><text fill="rgb(68,68,68)" stroke="none" font-family="helvetica" font-size="9pt" font-style="normal" font-weight="normal" text-decoration="normal" x="0" y="0" text-anchor="start" dominant-baseline="text-after-edge" transform="matrix(1, 0, 0, 1, 231.25509643554688, 380.11712646484375)" fill-opacity="1">LYL1</text><path fill="none" stroke="none"/><text fill="rgb(68,68,68)" stroke="none" font-family="helvetica" font-size="9pt" font-style="normal" font-weight="normal" text-decoration="normal" x="0" y="0" text-anchor="start" dominant-baseline="text-after-edge" transform="matrix(1, 0, 0, 1, 342.0709228515625, 323.5079040527344)" fill-opacity="1">FLAG_GFI1</text><path fill="none" stroke="none"/><text fill="rgb(68,68,68)" stroke="none" font-family="helvetica" font-size="9pt" font-style="normal" font-weight="normal" text-decoration="normal" x="0" y="0" text-anchor="start" dominant-baseline="text-after-edge" transform="matrix(1, 0, 0, 1, 133.2952651977539, 434.19415283203125)" fill-opacity="1">HOXA9</text><path fill="none" stroke="none"/><text fill="rgb(68,68,68)" stroke="none" font-family="helvetica" font-size="9pt" font-style="normal" font-weight="normal" text-decoration="normal" x="0" y="0" text-anchor="start" dominant-baseline="text-after-edge" transform="matrix(1, 0, 0, 1, 364.1316223144531, 331.5580749511719)" fill-opacity="1">STAT5B</text><path fill="none" stroke="none"/><text fill="rgb(68,68,68)" stroke="none" font-family="helvetica" font-size="9pt" font-style="normal" font-weight="normal" text-decoration="normal" x="0" y="0" text-anchor="start" dominant-baseline="text-after-edge" transform="matrix(1, 0, 0, 1, 150.05516052246094, 415.1725769042969)" fill-opacity="1">MEIS1</text><path fill="none" stroke="none"/><text fill="rgb(68,68,68)" stroke="none" font-family="helvetica" font-size="9pt" font-style="normal" font-weight="normal" text-decoration="normal" x="0" y="0" text-anchor="start" dominant-baseline="text-after-edge" transform="matrix(1, 0, 0, 1, 88.53404235839844, 194.8742218017578)" fill-opacity="1">ETV6</text><path fill="none" stroke="none"/><text fill="rgb(68,68,68)" stroke="none" font-family="helvetica" font-size="9pt" font-style="normal" font-weight="normal" text-decoration="normal" x="0" y="0" text-anchor="start" dominant-baseline="text-after-edge" transform="matrix(1, 0, 0, 1, 315.0856018066406, 201.24400329589844)" fill-opacity="1">ZNF281</text><path fill="none" stroke="none"/><text fill="rgb(68,68,68)" stroke="none" font-family="helvetica" font-size="9pt" font-style="normal" font-weight="normal" text-decoration="normal" x="0" y="0" text-anchor="start" dominant-baseline="text-after-edge" transform="matrix(1, 0, 0, 1, 334.94122314453125, 130.6092529296875)" fill-opacity="1">MYC</text><path fill="none" stroke="none"/><text fill="rgb(68,68,68)" stroke="none" font-family="helvetica" font-size="9pt" font-style="normal" font-weight="normal" text-decoration="normal" x="0" y="0" text-anchor="start" dominant-baseline="text-after-edge" transform="matrix(1, 0, 0, 1, 167.09571838378906, 361.8341064453125)" fill-opacity="1">RUNX2</text><path fill="none" stroke="none"/><text fill="rgb(68,68,68)" stroke="none" font-family="helvetica" font-size="9pt" font-style="normal" font-weight="normal" text-decoration="normal" x="0" y="0" text-anchor="start" dominant-baseline="text-after-edge" transform="matrix(1, 0, 0, 1, 526.8558349609375, 392.4017639160156)" fill-opacity="1">SPI1</text><path fill="none" stroke="none"/><text fill="rgb(68,68,68)" stroke="none" font-family="helvetica" font-size="9pt" font-style="normal" font-weight="normal" text-decoration="normal" x="0" y="0" text-anchor="start" dominant-baseline="text-after-edge" transform="matrix(1, 0, 0, 1, 386.12152099609375, 132.65823364257812)" fill-opacity="1">ZMYND8</text><path fill="none" stroke="none"/><text fill="rgb(68,68,68)" stroke="none" font-family="helvetica" font-size="9pt" font-style="normal" font-weight="normal" text-decoration="normal" x="0" y="0" text-anchor="start" dominant-baseline="text-after-edge" transform="matrix(1, 0, 0, 1, 551.3636474609375, 395.4049377441406)" fill-opacity="1">IRF8</text><path fill="none" stroke="none"/><text fill="rgb(68,68,68)" stroke="none" font-family="helvetica" font-size="9pt" font-style="normal" font-weight="normal" text-decoration="normal" x="0" y="0" text-anchor="start" dominant-baseline="text-after-edge" transform="matrix(1, 0, 0, 1, 392.6084899902344, 305.4173889160156)" fill-opacity="1">ZEB2</text><path fill="none" stroke="none"/><text fill="rgb(68,68,68)" stroke="none" font-family="helvetica" font-size="9pt" font-style="normal" font-weight="normal" text-decoration="normal" x="0" y="0" text-anchor="start" dominant-baseline="text-after-edge" transform="matrix(1, 0, 0, 1, 268.8456726074219, 381.0946350097656)" fill-opacity="1">GATA2</text><path fill="none" stroke="none"/><text fill="rgb(68,68,68)" stroke="none" font-family="helvetica" font-size="9pt" font-style="normal" font-weight="normal" text-decoration="normal" x="0" y="0" text-anchor="start" dominant-baseline="text-after-edge" transform="matrix(1, 0, 0, 1, 300.09942626953125, 67.837646484375)" fill-opacity="1">E2F3</text><path fill="none" stroke="none"/><text fill="rgb(68,68,68)" stroke="none" font-family="helvetica" font-size="9pt" font-style="normal" font-weight="normal" text-decoration="normal" x="0" y="0" text-anchor="start" dominant-baseline="text-after-edge" transform="matrix(1, 0, 0, 1, 177.07647705078125, 387.3132629394531)" fill-opacity="1">MYB</text><path fill="none" stroke="none"/><text fill="rgb(68,68,68)" stroke="none" font-family="helvetica" font-size="9pt" font-style="normal" font-weight="normal" text-decoration="normal" x="0" y="0" text-anchor="start" dominant-baseline="text-after-edge" transform="matrix(1, 0, 0, 1, 283.10845947265625, 48.5)" fill-opacity="1">SREBF1</text><path fill="none" stroke="rgb(0,0,0)" paint-order="fill" d="M 39.5 578.5 L 570.5 578.5" stroke-opacity="1" stroke-linejoin="bevel" stroke-miterlimit="10" stroke-dasharray=""/><path fill="none" stroke="rgb(0,0,0)" paint-order="fill" d="M 89.5 584.5 L 89.5 576.5 M 170.5 584.5 L 170.5 576.5 M 251.5 584.5 L 251.5 576.5 M 332.5 584.5 L 332.5 576.5 M 413.5 584.5 L 413.5 576.5 M 494.5 584.5 L 494.5 576.5" stroke-opacity="1" stroke-linejoin="bevel" stroke-miterlimit="10" stroke-dasharray=""/><path fill="none" stroke="rgb(0,0,0)" paint-order="fill" d="M 73.5 582.5 L 73.5 578.5 M 56.5 582.5 L 56.5 578.5 M 40.5 582.5 L 40.5 578.5 M 89.5 582.5 L 89.5 578.5 M 105.5 582.5 L 105.5 578.5 M 121.5 582.5 L 121.5 578.5 M 137.5 582.5 L 137.5 578.5 M 154.5 582.5 L 154.5 578.5 M 170.5 582.5 L 170.5 578.5 M 186.5 582.5 L 186.5 578.5 M 202.5 582.5 L 202.5 578.5 M 219.5 582.5 L 219.5 578.5 M 235.5 582.5 L 235.5 578.5 M 251.5 582.5 L 251.5 578.5 M 267.5 582.5 L 267.5 578.5 M 283.5 582.5 L 283.5 578.5 M 300.5 582.5 L 300.5 578.5 M 316.5 582.5 L 316.5 578.5 M 332.5 582.5 L 332.5 578.5 M 348.5 582.5 L 348.5 578.5 M 365.5 582.5 L 365.5 578.5 M 381.5 582.5 L 381.5 578.5 M 397.5 582.5 L 397.5 578.5 M 413.5 582.5 L 413.5 578.5 M 429.5 582.5 L 429.5 578.5 M 446.5 582.5 L 446.5 578.5 M 462.5 582.5 L 462.5 578.5 M 478.5 582.5 L 478.5 578.5 M 494.5 582.5 L 494.5 578.5 M 511.5 582.5 L 511.5 578.5 M 527.5 582.5 L 527.5 578.5 M 543.5 582.5 L 543.5 578.5 M 559.5 582.5 L 559.5 578.5" stroke-opacity="1" stroke-linejoin="bevel" stroke-miterlimit="10" stroke-dasharray=""/><text fill="rgb(68,68,68)" stroke="none" font-family="helvetica" font-size="11px" font-style="normal" font-weight="normal" text-decoration="normal" x="76.37788200378418" y="597" text-anchor="start" dominant-baseline="alphabetic" transform="matrix(1, 0, 0, 1, 0.5, 0.5)" fill-opacity="1">−300</text><text fill="rgb(68,68,68)" stroke="none" font-family="helvetica" font-size="11px" font-style="normal" font-weight="normal" text-decoration="normal" x="157.50175285339355" y="597" text-anchor="start" dominant-baseline="alphabetic" transform="matrix(1, 0, 0, 1, 0.5, 0.5)" fill-opacity="1">−200</text><text fill="rgb(68,68,68)" stroke="none" font-family="helvetica" font-size="11px" font-style="normal" font-weight="normal" text-decoration="normal" x="238.62562370300293" y="597" text-anchor="start" dominant-baseline="alphabetic" transform="matrix(1, 0, 0, 1, 0.5, 0.5)" fill-opacity="1">−100</text><text fill="rgb(68,68,68)" stroke="none" font-family="helvetica" font-size="11px" font-style="normal" font-weight="normal" text-decoration="normal" x="329.0745096206665" y="597" text-anchor="start" dominant-baseline="alphabetic" transform="matrix(1, 0, 0, 1, 0.5, 0.5)" fill-opacity="1">0</text><text fill="rgb(68,68,68)" stroke="none" font-family="helvetica" font-size="11px" font-style="normal" font-weight="normal" text-decoration="normal" x="404.08171367645264" y="597" text-anchor="start" dominant-baseline="alphabetic" transform="matrix(1, 0, 0, 1, 0.5, 0.5)" fill-opacity="1">100</text><text fill="rgb(68,68,68)" stroke="none" font-family="helvetica" font-size="11px" font-style="normal" font-weight="normal" text-decoration="normal" x="485.205584526062" y="597" text-anchor="start" dominant-baseline="alphabetic" transform="matrix(1, 0, 0, 1, 0.5, 0.5)" fill-opacity="1">200</text><path fill="none" stroke="rgb(0,0,0)" paint-order="fill" d="M 39.5 578.5 L 39.5 28.5" stroke-opacity="1" stroke-linejoin="bevel" stroke-miterlimit="10" stroke-dasharray=""/><path fill="none" stroke="rgb(0,0,0)" paint-order="fill" d="M 33.5 532.5 L 41.5 532.5 M 33.5 411.5 L 41.5 411.5 M 33.5 291.5 L 41.5 291.5 M 33.5 170.5 L 41.5 170.5 M 33.5 49.5 L 41.5 49.5" stroke-opacity="1" stroke-linejoin="bevel" stroke-miterlimit="10" stroke-dasharray=""/><path fill="none" stroke="rgb(0,0,0)" paint-order="fill" d="M 35.5 557.5 L 39.5 557.5 M 35.5 532.5 L 39.5 532.5 M 35.5 508.5 L 39.5 508.5 M 35.5 484.5 L 39.5 484.5 M 35.5 460.5 L 39.5 460.5 M 35.5 436.5 L 39.5 436.5 M 35.5 411.5 L 39.5 411.5 M 35.5 387.5 L 39.5 387.5 M 35.5 363.5 L 39.5 363.5 M 35.5 339.5 L 39.5 339.5 M 35.5 315.5 L 39.5 315.5 M 35.5 291.5 L 39.5 291.5 M 35.5 266.5 L 39.5 266.5 M 35.5 242.5 L 39.5 242.5 M 35.5 218.5 L 39.5 218.5 M 35.5 194.5 L 39.5 194.5 M 35.5 170.5 L 39.5 170.5 M 35.5 145.5 L 39.5 145.5 M 35.5 121.5 L 39.5 121.5 M 35.5 97.5 L 39.5 97.5 M 35.5 73.5 L 39.5 73.5 M 35.5 49.5 L 39.5 49.5" stroke-opacity="1" stroke-linejoin="bevel" stroke-miterlimit="10" stroke-dasharray=""/><text fill="rgb(68,68,68)" stroke="none" font-family="helvetica" font-size="11px" font-style="normal" font-weight="normal" text-decoration="normal" x="3.2333335876464844" y="536.3682250976562" text-anchor="start" dominant-baseline="alphabetic" transform="matrix(1, 0, 0, 1, 0.5, 0.5)" fill-opacity="1">−400</text><text fill="rgb(68,68,68)" stroke="none" font-family="helvetica" font-size="11px" font-style="normal" font-weight="normal" text-decoration="normal" x="3.2333335876464844" y="415.4595031738281" text-anchor="start" dominant-baseline="alphabetic" transform="matrix(1, 0, 0, 1, 0.5, 0.5)" fill-opacity="1">−200</text><text fill="rgb(68,68,68)" stroke="none" font-family="helvetica" font-size="11px" font-style="normal" font-weight="normal" text-decoration="normal" x="21.883333206176758" y="294.55078125" text-anchor="start" dominant-baseline="alphabetic" transform="matrix(1, 0, 0, 1, 0.5, 0.5)" fill-opacity="1">0</text><text fill="rgb(68,68,68)" stroke="none" font-family="helvetica" font-size="11px" font-style="normal" font-weight="normal" text-decoration="normal" x="9.649999618530273" y="173.6420440673828" text-anchor="start" dominant-baseline="alphabetic" transform="matrix(1, 0, 0, 1, 0.5, 0.5)" fill-opacity="1">200</text><text fill="rgb(68,68,68)" stroke="none" font-family="helvetica" font-size="11px" font-style="normal" font-weight="normal" text-decoration="normal" x="9.649999618530273" y="52.73332595825195" text-anchor="start" dominant-baseline="alphabetic" transform="matrix(1, 0, 0, 1, 0.5, 0.5)" fill-opacity="1">400</text><path fill="none" stroke="none"/><text fill="rgb(68,68,68)" stroke="none" font-family="helvetica" font-size="13px" font-style="normal" font-weight="bold" text-decoration="normal" x="0" y="0" text-anchor="start" dominant-baseline="text-after-edge" transform="matrix(1, 0, 0, 1, 39.5, 23.5)" fill-opacity="1">scatter plot of CRC distance in cobinding space</text></svg>