<svg version="1.1" xmlns="http://www.w3.org/2000/svg" xmlns:xlink="http://www.w3.org/1999/xlink" width="600" height="600"><defs><clipPath id="XizafRXVUHFk"><path fill="none" stroke="none" d="M 39.5 28.5 L 570.5 28.5 L 570.5 578.5 L 39.5 578.5 L 39.5 28.5"/></clipPath><clipPath id="TxSdIthbbGeW"><path fill="none" stroke="none" d="M 39.5 28.5 L 570.5 28.5 L 570.5 578.5 L 39.5 578.5 L 39.5 28.5"/></clipPath><clipPath id="ixHrJmDublVk"><path fill="none" stroke="none" d="M 39.5 28.5 L 570.5 28.5 L 570.5 578.5 L 39.5 578.5 L 39.5 28.5"/></clipPath><clipPath id="vCLIWAOsJlxH"><path fill="none" stroke="none" d="M 39.5 28.5 L 570.5 28.5 L 570.5 578.5 L 39.5 578.5 L 39.5 28.5"/></clipPath><clipPath id="fMuRqmPBrhUl"><path fill="none" stroke="none" d="M 39.5 28.5 L 570.5 28.5 L 570.5 578.5 L 39.5 578.5 L 39.5 28.5"/></clipPath><clipPath id="HzaoJgpPgATy"><path fill="none" stroke="none" d="M 39.5 28.5 L 570.5 28.5 L 570.5 578.5 L 39.5 578.5 L 39.5 28.5"/></clipPath><clipPath id="MNgDVLwHlwNt"><path fill="none" stroke="none" d="M 39.5 28.5 L 570.5 28.5 L 570.5 578.5 L 39.5 578.5 L 39.5 28.5"/></clipPath><clipPath id="LDNBJdHBCmdP"><path fill="none" stroke="none" d="M 39.5 28.5 L 570.5 28.5 L 570.5 578.5 L 39.5 578.5 L 39.5 28.5"/></clipPath><clipPath id="ihpsHUFZfroe"><path fill="none" stroke="none" d="M 39.5 28.5 L 570.5 28.5 L 570.5 578.5 L 39.5 578.5 L 39.5 28.5"/></clipPath></defs><path fill="rgb(255,255,255)" stroke="none" paint-order="stroke" d="M 0.5 0.5 L 600.5 0.5 L 600.5 600.5 L 0.5 600.5 L 0.5 0.5" fill-opacity="1"/><rect fill="#FFFFFF" stroke="none" x="39" y="28" width="531" height="550" transform="matrix(1, 0, 0, 1, 0.5, 0.5)"/><path fill="rgb(255,255,255)" stroke="none" paint-order="stroke" d="M 39.5 28.5 L 570.5 28.5 L 570.5 578.5 L 39.5 578.5 L 39.5 28.5" fill-opacity="1"/><path fill="none" stroke="rgb(229,229,229)" paint-order="fill" d="M 39.5 28.5 L 570.5 28.5 L 570.5 578.5 L 39.5 578.5 L 39.5 28.5" stroke-opacity="1" stroke-linejoin="bevel" stroke-miterlimit="10" stroke-dasharray=""/><path fill="none" stroke="rgb(229,229,229)" paint-order="fill" d="M 63.5 578.5 L 63.5 28.5 M 179.5 578.5 L 179.5 28.5 M 296.5 578.5 L 296.5 28.5 M 412.5 578.5 L 412.5 28.5 M 529.5 578.5 L 529.5 28.5" stroke-opacity="1" stroke-linejoin="bevel" stroke-miterlimit="10" stroke-dasharray="" clip-path="url(#XizafRXVUHFk)"/><path fill="none" stroke="rgb(229,229,229)" paint-order="fill" d="M 39.5 551.5 L 570.5 551.5 M 39.5 458.5 L 570.5 458.5 M 39.5 365.5 L 570.5 365.5 M 39.5 271.5 L 570.5 271.5 M 39.5 178.5 L 570.5 178.5 M 39.5 85.5 L 570.5 85.5" stroke-opacity="1" stroke-linejoin="bevel" stroke-miterlimit="10" stroke-dasharray="" clip-path="url(#TxSdIthbbGeW)"/><path fill="none" stroke="none"/><path fill="rgb(68,1,84)" stroke="none" paint-order="stroke" d="M 377.61688232421875 322.9698181152344 A 2 2 0 1 1 377.6168813242188 322.9678181155677" fill-opacity="0.8" clip-path="url(#ixHrJmDublVk)"/><path fill="rgb(68,1,84)" stroke="none" paint-order="stroke" d="M 403.0569763183594 472.8935241699219 A 2 2 0 1 1 403.05697531835943 472.8915241702552" fill-opacity="0.8" clip-path="url(#ixHrJmDublVk)"/><path fill="rgb(253,231,36)" stroke="none" paint-order="stroke" d="M 340.7974853515625 470.7604064941406 A 2 2 0 1 1 340.79748435156256 470.75840649447395" fill-opacity="0.8" clip-path="url(#ixHrJmDublVk)"/><path fill="rgb(253,231,36)" stroke="none" paint-order="stroke" d="M 487.737060546875 256.4049835205078 A 2 2 0 1 1 487.73705954687506 256.40298352084113" fill-opacity="0.8" clip-path="url(#ixHrJmDublVk)"/><path fill="rgb(253,231,36)" stroke="none" paint-order="stroke" d="M 374.52398681640625 409.4535827636719 A 2 2 0 1 1 374.5239858164063 409.4515827640052" fill-opacity="0.8" clip-path="url(#ixHrJmDublVk)"/><path fill="rgb(253,231,36)" stroke="none" paint-order="stroke" d="M 366.5335388183594 281.0170593261719 A 2 2 0 1 1 366.53353781835943 281.0150593265052" fill-opacity="0.8" clip-path="url(#ixHrJmDublVk)"/><path fill="rgb(253,231,36)" stroke="none" paint-order="stroke" d="M 439.9659118652344 384.9383544921875 A 2 2 0 1 1 439.96591086523443 384.9363544925208" fill-opacity="0.8" clip-path="url(#ixHrJmDublVk)"/><path fill="rgb(253,231,36)" stroke="none" paint-order="stroke" d="M 473.2085876464844 420.6995849609375 A 2 2 0 1 1 473.20858664648443 420.6975849612708" fill-opacity="0.8" clip-path="url(#ixHrJmDublVk)"/><path fill="rgb(253,231,36)" stroke="none" paint-order="stroke" d="M 450.8890686035156 464.6180725097656 A 2 2 0 1 1 450.8890676035157 464.61607251009895" fill-opacity="0.8" clip-path="url(#ixHrJmDublVk)"/><path fill="rgb(253,231,36)" stroke="none" paint-order="stroke" d="M 417.412109375 234.3406219482422 A 2 2 0 1 1 417.41210837500006 234.3386219485755" fill-opacity="0.8" clip-path="url(#ixHrJmDublVk)"/><path fill="rgb(253,231,36)" stroke="none" paint-order="stroke" d="M 548.3636474609375 408.5652770996094 A 2 2 0 1 1 548.3636464609376 408.5632770999427" fill-opacity="0.8" clip-path="url(#ixHrJmDublVk)"/><path fill="rgb(253,231,36)" stroke="none" paint-order="stroke" d="M 494.1869812011719 271.3372497558594 A 2 2 0 1 1 494.18698020117193 271.3352497561927" fill-opacity="0.8" clip-path="url(#ixHrJmDublVk)"/><path fill="rgb(253,231,36)" stroke="none" paint-order="stroke" d="M 358.46490478515625 249.7024688720703 A 2 2 0 1 1 358.4649037851563 249.70046887240363" fill-opacity="0.8" clip-path="url(#ixHrJmDublVk)"/><path fill="rgb(253,231,36)" stroke="none" paint-order="stroke" d="M 297.1127624511719 526.5074462890625 A 2 2 0 1 1 297.11276145117193 526.5054462893959" fill-opacity="0.8" clip-path="url(#ixHrJmDublVk)"/><path fill="rgb(253,231,36)" stroke="none" paint-order="stroke" d="M 310.8797607421875 304.6166076660156 A 2 2 0 1 1 310.87975974218756 304.61460766634895" fill-opacity="0.8" clip-path="url(#ixHrJmDublVk)"/><path fill="rgb(253,231,36)" stroke="none" paint-order="stroke" d="M 403.44659423828125 392.15496826171875 A 2 2 0 1 1 403.4465932382813 392.15296826205207" fill-opacity="0.8" clip-path="url(#ixHrJmDublVk)"/><path fill="rgb(253,231,36)" stroke="none" paint-order="stroke" d="M 328.69476318359375 300.673583984375 A 2 2 0 1 1 328.6947621835938 300.6715839847083" fill-opacity="0.8" clip-path="url(#ixHrJmDublVk)"/><path fill="rgb(253,231,36)" stroke="none" paint-order="stroke" d="M 361.5635681152344 401.9248046875 A 2 2 0 1 1 361.56356711523443 401.9228046878333" fill-opacity="0.8" clip-path="url(#ixHrJmDublVk)"/><path fill="rgb(253,231,36)" stroke="none" paint-order="stroke" d="M 328.0179443359375 467.8827819824219 A 2 2 0 1 1 328.01794333593756 467.8807819827552" fill-opacity="0.8" clip-path="url(#ixHrJmDublVk)"/><path fill="rgb(253,231,36)" stroke="none" paint-order="stroke" d="M 451.3070983886719 392.10595703125 A 2 2 0 1 1 451.30709738867193 392.1039570315833" fill-opacity="0.8" clip-path="url(#ixHrJmDublVk)"/><path fill="rgb(253,231,36)" stroke="none" paint-order="stroke" d="M 362.5577392578125 298.8678894042969 A 2 2 0 1 1 362.55773825781256 298.8658894046302" fill-opacity="0.8" clip-path="url(#ixHrJmDublVk)"/><path fill="rgb(253,231,36)" stroke="none" paint-order="stroke" d="M 212.87109375 391.5559997558594 A 2 2 0 1 1 212.8710927500001 391.5539997561927" fill-opacity="0.8" clip-path="url(#ixHrJmDublVk)"/><path fill="rgb(253,231,36)" stroke="none" paint-order="stroke" d="M 407.90252685546875 342.6510314941406 A 2 2 0 1 1 407.9025258554688 342.64903149447395" fill-opacity="0.8" clip-path="url(#ixHrJmDublVk)"/><path fill="rgb(253,231,36)" stroke="none" paint-order="stroke" d="M 65.6363639831543 53.5 A 2 2 0 1 1 65.63636298315438 53.498000000333334" fill-opacity="0.8" clip-path="url(#ixHrJmDublVk)"/><path fill="rgb(253,231,36)" stroke="none" paint-order="stroke" d="M 424.1611328125 326.30010986328125 A 2 2 0 1 1 424.16113181250006 326.29810986361457" fill-opacity="0.8" clip-path="url(#ixHrJmDublVk)"/><path fill="rgb(253,231,36)" stroke="none" paint-order="stroke" d="M 353.4476013183594 223.4828338623047 A 2 2 0 1 1 353.44760031835943 223.480833862638" fill-opacity="0.8" clip-path="url(#ixHrJmDublVk)"/><path fill="rgb(253,231,36)" stroke="none" paint-order="stroke" d="M 481.5298156738281 532.1080932617188 A 2 2 0 1 1 481.5298146738282 532.1060932620521" fill-opacity="0.8" clip-path="url(#ixHrJmDublVk)"/><path fill="rgb(253,231,36)" stroke="none" paint-order="stroke" d="M 346.9247741699219 343.6430358886719 A 2 2 0 1 1 346.92477316992193 343.6410358890052" fill-opacity="0.8" clip-path="url(#ixHrJmDublVk)"/><path fill="rgb(253,231,36)" stroke="none" paint-order="stroke" d="M 478.7575988769531 553.5 A 2 2 0 1 1 478.7575978769532 553.4980000003334" fill-opacity="0.8" clip-path="url(#ixHrJmDublVk)"/><path fill="rgb(253,231,36)" stroke="none" paint-order="stroke" d="M 310.2040100097656 202.83770751953125 A 2 2 0 1 1 310.2040090097657 202.83570751986457" fill-opacity="0.8" clip-path="url(#ixHrJmDublVk)"/><path fill="rgb(253,231,36)" stroke="none" paint-order="stroke" d="M 352.1691589355469 493.23431396484375 A 2 2 0 1 1 352.16915793554693 493.23231396517707" fill-opacity="0.8" clip-path="url(#ixHrJmDublVk)"/><path fill="rgb(68,1,84)" stroke="none" paint-order="stroke" d="M 258.1280212402344 237.81256103515625 A 2 2 0 1 1 258.12802024023443 237.81056103548957" fill-opacity="0.8" clip-path="url(#ixHrJmDublVk)"/><path fill="rgb(68,1,84)" stroke="none" paint-order="stroke" d="M 294.6847229003906 351.77069091796875 A 2 2 0 1 1 294.6847219003907 351.76869091830207" fill-opacity="0.8" clip-path="url(#ixHrJmDublVk)"/><path fill="rgb(68,1,84)" stroke="none" paint-order="stroke" d="M 419.5597839355469 432.3989562988281 A 2 2 0 1 1 419.55978293554693 432.39695629916145" fill-opacity="0.8" clip-path="url(#ixHrJmDublVk)"/><path fill="rgb(68,1,84)" stroke="none" paint-order="stroke" d="M 413.3941650390625 119.33638763427734 A 2 2 0 1 1 413.39416403906256 119.33438763461068" fill-opacity="0.8" clip-path="url(#ixHrJmDublVk)"/><path fill="rgb(68,1,84)" stroke="none" paint-order="stroke" d="M 431.8229064941406 516.6321411132812 A 2 2 0 1 1 431.8229054941407 516.6301411136146" fill-opacity="0.8" clip-path="url(#ixHrJmDublVk)"/><path fill="rgb(68,1,84)" stroke="none" paint-order="stroke" d="M 505.0282287597656 176.15020751953125 A 2 2 0 1 1 505.0282277597657 176.14820751986457" fill-opacity="0.8" clip-path="url(#ixHrJmDublVk)"/><path fill="rgb(68,1,84)" stroke="none" paint-order="stroke" d="M 475.4396057128906 387.4056396484375 A 2 2 0 1 1 475.4396047128907 387.4036396487708" fill-opacity="0.8" clip-path="url(#ixHrJmDublVk)"/><path fill="rgb(68,1,84)" stroke="none" paint-order="stroke" d="M 404.57489013671875 254.3663787841797 A 2 2 0 1 1 404.5748891367188 254.364378784513" fill-opacity="0.8" clip-path="url(#ixHrJmDublVk)"/><path fill="rgb(68,1,84)" stroke="none" paint-order="stroke" d="M 273.24957275390625 376.0142822265625 A 2 2 0 1 1 273.2495717539063 376.0122822268958" fill-opacity="0.8" clip-path="url(#ixHrJmDublVk)"/><path fill="rgb(68,1,84)" stroke="none" paint-order="stroke" d="M 422.2720947265625 402.6904602050781 A 2 2 0 1 1 422.27209372656256 402.68846020541145" fill-opacity="0.8" clip-path="url(#ixHrJmDublVk)"/><path fill="rgb(68,1,84)" stroke="none" paint-order="stroke" d="M 424.0754089355469 360.0159912109375 A 2 2 0 1 1 424.07540793554693 360.0139912112708" fill-opacity="0.8" clip-path="url(#ixHrJmDublVk)"/><path fill="rgb(68,1,84)" stroke="none" paint-order="stroke" d="M 349.8276672363281 316.7933349609375 A 2 2 0 1 1 349.8276662363282 316.7913349612708" fill-opacity="0.8" clip-path="url(#ixHrJmDublVk)"/><path fill="rgb(68,1,84)" stroke="none" paint-order="stroke" d="M 282.77191162109375 386.85198974609375 A 2 2 0 1 1 282.7719106210938 386.84998974642707" fill-opacity="0.8" clip-path="url(#ixHrJmDublVk)"/><path fill="rgb(68,1,84)" stroke="none" paint-order="stroke" d="M 478.89178466796875 329.8900451660156 A 2 2 0 1 1 478.8917836679688 329.88804516634895" fill-opacity="0.8" clip-path="url(#ixHrJmDublVk)"/><path fill="rgb(68,1,84)" stroke="none" paint-order="stroke" d="M 448.0978698730469 354.9588317871094 A 2 2 0 1 1 448.09786887304693 354.9568317874427" fill-opacity="0.8" clip-path="url(#ixHrJmDublVk)"/><path fill="rgb(68,1,84)" stroke="none" paint-order="stroke" d="M 261.1392822265625 358.9817199707031 A 2 2 0 1 1 261.13928122656256 358.97971997103645" fill-opacity="0.8" clip-path="url(#ixHrJmDublVk)"/><path fill="rgb(68,1,84)" stroke="none" paint-order="stroke" d="M 407.2421569824219 291.23907470703125 A 2 2 0 1 1 407.24215598242193 291.23707470736457" fill-opacity="0.8" clip-path="url(#ixHrJmDublVk)"/><path fill="rgb(68,1,84)" stroke="none" paint-order="stroke" d="M 461.4292297363281 338.7472229003906 A 2 2 0 1 1 461.4292287363282 338.74522290072395" fill-opacity="0.8" clip-path="url(#ixHrJmDublVk)"/><path fill="rgb(68,1,84)" stroke="none" paint-order="stroke" d="M 315.48345947265625 185.9696044921875 A 2 2 0 1 1 315.4834584726563 185.96760449252082" fill-opacity="0.8" clip-path="url(#ixHrJmDublVk)"/><path fill="rgb(68,1,84)" stroke="none" paint-order="stroke" d="M 501.2306823730469 159.13876342773438 A 2 2 0 1 1 501.23068137304693 159.1367634280677" fill-opacity="0.8" clip-path="url(#ixHrJmDublVk)"/><path fill="rgb(68,1,84)" stroke="none" paint-order="stroke" d="M 447.7708740234375 436.9132080078125 A 2 2 0 1 1 447.77087302343756 436.9112080081458" fill-opacity="0.8" clip-path="url(#ixHrJmDublVk)"/><path fill="rgb(68,1,84)" stroke="none" paint-order="stroke" d="M 512.3067321777344 462.65765380859375 A 2 2 0 1 1 512.3067311777345 462.65565380892707" fill-opacity="0.8" clip-path="url(#ixHrJmDublVk)"/><path fill="rgb(68,1,84)" stroke="none" paint-order="stroke" d="M 499.36529541015625 450.2322998046875 A 2 2 0 1 1 499.3652944101563 450.2302998050208" fill-opacity="0.8" clip-path="url(#ixHrJmDublVk)"/><path fill="rgb(68,1,84)" stroke="none" paint-order="stroke" d="M 529.63671875 362.6395263671875 A 2 2 0 1 1 529.6367177500001 362.6375263675208" fill-opacity="0.8" clip-path="url(#ixHrJmDublVk)"/><path fill="rgb(68,1,84)" stroke="none" paint-order="stroke" d="M 513.1696472167969 493.08795166015625 A 2 2 0 1 1 513.169646216797 493.08595166048957" fill-opacity="0.8" clip-path="url(#ixHrJmDublVk)"/><path fill="rgb(68,1,84)" stroke="none" paint-order="stroke" d="M 413.6462707519531 100.70291137695312 A 2 2 0 1 1 413.6462697519532 100.70091137728646" fill-opacity="0.8" clip-path="url(#ixHrJmDublVk)"/><path fill="rgb(68,1,84)" stroke="none" paint-order="stroke" d="M 264.191650390625 222.2080841064453 A 2 2 0 1 1 264.19164939062506 222.20608410677863" fill-opacity="0.8" clip-path="url(#ixHrJmDublVk)"/><path fill="rgb(68,1,84)" stroke="none" paint-order="stroke" d="M 521.632080078125 421.76239013671875 A 2 2 0 1 1 521.6320790781251 421.76039013705207" fill-opacity="0.8" clip-path="url(#ixHrJmDublVk)"/><path fill="rgb(68,1,84)" stroke="none" paint-order="stroke" d="M 541.4786987304688 458.06561279296875 A 2 2 0 1 1 541.4786977304689 458.06361279330207" fill-opacity="0.8" clip-path="url(#ixHrJmDublVk)"/><path fill="rgb(68,1,84)" stroke="none" paint-order="stroke" d="M 523.2903442382812 441.79449462890625 A 2 2 0 1 1 523.2903432382814 441.79249462923957" fill-opacity="0.8" clip-path="url(#ixHrJmDublVk)"/><path fill="rgb(68,1,84)" stroke="none" paint-order="stroke" d="M 523.31787109375 392.36962890625 A 2 2 0 1 1 523.3178700937501 392.3676289065833" fill-opacity="0.8" clip-path="url(#ixHrJmDublVk)"/><path fill="none" stroke="none"/><text fill="rgb(68,68,68)" stroke="none" font-family="helvetica" font-size="9pt" font-style="normal" font-weight="normal" text-decoration="normal" x="0" y="0" text-anchor="start" dominant-baseline="text-after-edge" transform="matrix(1, 0, 0, 1, 380.61688232421875, 317.9698181152344)" fill-opacity="1">open regions</text><path fill="none" stroke="none"/><text fill="rgb(68,68,68)" stroke="none" font-family="helvetica" font-size="9pt" font-style="normal" font-weight="normal" text-decoration="normal" x="0" y="0" text-anchor="start" dominant-baseline="text-after-edge" transform="matrix(1, 0, 0, 1, 406.0569763183594, 467.8935241699219)" fill-opacity="1">super_enhancer</text><path fill="none" stroke="none"/><text fill="rgb(68,68,68)" stroke="none" font-family="helvetica" font-size="9pt" font-style="normal" font-weight="normal" text-decoration="normal" x="0" y="0" text-anchor="start" dominant-baseline="text-after-edge" transform="matrix(1, 0, 0, 1, 343.7974853515625, 465.7604064941406)" fill-opacity="1">FLAG_MEF2D</text><path fill="none" stroke="none"/><text fill="rgb(68,68,68)" stroke="none" font-family="helvetica" font-size="9pt" font-style="normal" font-weight="normal" text-decoration="normal" x="0" y="0" text-anchor="start" dominant-baseline="text-after-edge" transform="matrix(1, 0, 0, 1, 490.737060546875, 251.4049835205078)" fill-opacity="1">TFAP4</text><path fill="none" stroke="none"/><text fill="rgb(68,68,68)" stroke="none" font-family="helvetica" font-size="9pt" font-style="normal" font-weight="normal" text-decoration="normal" x="0" y="0" text-anchor="start" dominant-baseline="text-after-edge" transform="matrix(1, 0, 0, 1, 377.52398681640625, 404.4535827636719)" fill-opacity="1">FLI1</text><path fill="none" stroke="none"/><text fill="rgb(68,68,68)" stroke="none" font-family="helvetica" font-size="9pt" font-style="normal" font-weight="normal" text-decoration="normal" x="0" y="0" text-anchor="start" dominant-baseline="text-after-edge" transform="matrix(1, 0, 0, 1, 369.5335388183594, 276.0170593261719)" fill-opacity="1">RUNX1</text><path fill="none" stroke="none"/><text fill="rgb(68,68,68)" stroke="none" font-family="helvetica" font-size="9pt" font-style="normal" font-weight="normal" text-decoration="normal" x="0" y="0" text-anchor="start" dominant-baseline="text-after-edge" transform="matrix(1, 0, 0, 1, 442.9659118652344, 379.9383544921875)" fill-opacity="1">MAX</text><path fill="none" stroke="none"/><text fill="rgb(68,68,68)" stroke="none" font-family="helvetica" font-size="9pt" font-style="normal" font-weight="normal" text-decoration="normal" x="0" y="0" text-anchor="start" dominant-baseline="text-after-edge" transform="matrix(1, 0, 0, 1, 476.2085876464844, 415.6995849609375)" fill-opacity="1">LMO2</text><path fill="none" stroke="none"/><text fill="rgb(68,68,68)" stroke="none" font-family="helvetica" font-size="9pt" font-style="normal" font-weight="normal" text-decoration="normal" x="0" y="0" text-anchor="start" dominant-baseline="text-after-edge" transform="matrix(1, 0, 0, 1, 453.8890686035156, 459.6180725097656)" fill-opacity="1">PLAGL2</text><path fill="none" stroke="none"/><text fill="rgb(68,68,68)" stroke="none" font-family="helvetica" font-size="9pt" font-style="normal" font-weight="normal" text-decoration="normal" x="0" y="0" text-anchor="start" dominant-baseline="text-after-edge" transform="matrix(1, 0, 0, 1, 420.412109375, 229.3406219482422)" fill-opacity="1">FOSL2</text><path fill="none" stroke="none"/><text fill="rgb(68,68,68)" stroke="none" font-family="helvetica" font-size="9pt" font-style="normal" font-weight="normal" text-decoration="normal" x="0" y="0" text-anchor="start" dominant-baseline="text-after-edge" transform="matrix(1, 0, 0, 1, 551.3636474609375, 403.5652770996094)" fill-opacity="1">SP1</text><path fill="none" stroke="none"/><text fill="rgb(68,68,68)" stroke="none" font-family="helvetica" font-size="9pt" font-style="normal" font-weight="normal" text-decoration="normal" x="0" y="0" text-anchor="start" dominant-baseline="text-after-edge" transform="matrix(1, 0, 0, 1, 497.1869812011719, 266.3372497558594)" fill-opacity="1">RXRA</text><path fill="none" stroke="none"/><text fill="rgb(68,68,68)" stroke="none" font-family="helvetica" font-size="9pt" font-style="normal" font-weight="normal" text-decoration="normal" x="0" y="0" text-anchor="start" dominant-baseline="text-after-edge" transform="matrix(1, 0, 0, 1, 361.46490478515625, 244.7024688720703)" fill-opacity="1">LYL1</text><path fill="none" stroke="none"/><text fill="rgb(68,68,68)" stroke="none" font-family="helvetica" font-size="9pt" font-style="normal" font-weight="normal" text-decoration="normal" x="0" y="0" text-anchor="start" dominant-baseline="text-after-edge" transform="matrix(1, 0, 0, 1, 300.1127624511719, 521.5074462890625)" fill-opacity="1">FLAG_GFI1</text><path fill="none" stroke="none"/><text fill="rgb(68,68,68)" stroke="none" font-family="helvetica" font-size="9pt" font-style="normal" font-weight="normal" text-decoration="normal" x="0" y="0" text-anchor="start" dominant-baseline="text-after-edge" transform="matrix(1, 0, 0, 1, 313.8797607421875, 299.6166076660156)" fill-opacity="1">HOXA9</text><path fill="none" stroke="none"/><text fill="rgb(68,68,68)" stroke="none" font-family="helvetica" font-size="9pt" font-style="normal" font-weight="normal" text-decoration="normal" x="0" y="0" text-anchor="start" dominant-baseline="text-after-edge" transform="matrix(1, 0, 0, 1, 406.44659423828125, 387.15496826171875)" fill-opacity="1">STAT5B</text><path fill="none" stroke="none"/><text fill="rgb(68,68,68)" stroke="none" font-family="helvetica" font-size="9pt" font-style="normal" font-weight="normal" text-decoration="normal" x="0" y="0" text-anchor="start" dominant-baseline="text-after-edge" transform="matrix(1, 0, 0, 1, 331.69476318359375, 295.673583984375)" fill-opacity="1">MEIS1</text><path fill="none" stroke="none"/><text fill="rgb(68,68,68)" stroke="none" font-family="helvetica" font-size="9pt" font-style="normal" font-weight="normal" text-decoration="normal" x="0" y="0" text-anchor="start" dominant-baseline="text-after-edge" transform="matrix(1, 0, 0, 1, 364.5635681152344, 396.9248046875)" fill-opacity="1">ETV6</text><path fill="none" stroke="none"/><text fill="rgb(68,68,68)" stroke="none" font-family="helvetica" font-size="9pt" font-style="normal" font-weight="normal" text-decoration="normal" x="0" y="0" text-anchor="start" dominant-baseline="text-after-edge" transform="matrix(1, 0, 0, 1, 331.0179443359375, 462.8827819824219)" fill-opacity="1">ZNF281</text><path fill="none" stroke="none"/><text fill="rgb(68,68,68)" stroke="none" font-family="helvetica" font-size="9pt" font-style="normal" font-weight="normal" text-decoration="normal" x="0" y="0" text-anchor="start" dominant-baseline="text-after-edge" transform="matrix(1, 0, 0, 1, 454.3070983886719, 387.10595703125)" fill-opacity="1">MYC</text><path fill="none" stroke="none"/><text fill="rgb(68,68,68)" stroke="none" font-family="helvetica" font-size="9pt" font-style="normal" font-weight="normal" text-decoration="normal" x="0" y="0" text-anchor="start" dominant-baseline="text-after-edge" transform="matrix(1, 0, 0, 1, 365.5577392578125, 293.8678894042969)" fill-opacity="1">RUNX2</text><path fill="none" stroke="none"/><text fill="rgb(68,68,68)" stroke="none" font-family="helvetica" font-size="9pt" font-style="normal" font-weight="normal" text-decoration="normal" x="0" y="0" text-anchor="start" dominant-baseline="text-after-edge" transform="matrix(1, 0, 0, 1, 215.87109375, 386.5559997558594)" fill-opacity="1">SPI1</text><path fill="none" stroke="none"/><text fill="rgb(68,68,68)" stroke="none" font-family="helvetica" font-size="9pt" font-style="normal" font-weight="normal" text-decoration="normal" x="0" y="0" text-anchor="start" dominant-baseline="text-after-edge" transform="matrix(1, 0, 0, 1, 410.90252685546875, 337.6510314941406)" fill-opacity="1">ZMYND8</text><path fill="none" stroke="none"/><text fill="rgb(68,68,68)" stroke="none" font-family="helvetica" font-size="9pt" font-style="normal" font-weight="normal" text-decoration="normal" x="0" y="0" text-anchor="start" dominant-baseline="text-after-edge" transform="matrix(1, 0, 0, 1, 68.6363639831543, 48.5)" fill-opacity="1">IRF8</text><path fill="none" stroke="none"/><text fill="rgb(68,68,68)" stroke="none" font-family="helvetica" font-size="9pt" font-style="normal" font-weight="normal" text-decoration="normal" x="0" y="0" text-anchor="start" dominant-baseline="text-after-edge" transform="matrix(1, 0, 0, 1, 427.1611328125, 321.30010986328125)" fill-opacity="1">ZEB2</text><path fill="none" stroke="none"/><text fill="rgb(68,68,68)" stroke="none" font-family="helvetica" font-size="9pt" font-style="normal" font-weight="normal" text-decoration="normal" x="0" y="0" text-anchor="start" dominant-baseline="text-after-edge" transform="matrix(1, 0, 0, 1, 356.4476013183594, 218.4828338623047)" fill-opacity="1">GATA2</text><path fill="none" stroke="none"/><text fill="rgb(68,68,68)" stroke="none" font-family="helvetica" font-size="9pt" font-style="normal" font-weight="normal" text-decoration="normal" x="0" y="0" text-anchor="start" dominant-baseline="text-after-edge" transform="matrix(1, 0, 0, 1, 484.5298156738281, 527.1080932617188)" fill-opacity="1">E2F3</text><path fill="none" stroke="none"/><text fill="rgb(68,68,68)" stroke="none" font-family="helvetica" font-size="9pt" font-style="normal" font-weight="normal" text-decoration="normal" x="0" y="0" text-anchor="start" dominant-baseline="text-after-edge" transform="matrix(1, 0, 0, 1, 349.9247741699219, 338.6430358886719)" fill-opacity="1">MYB</text><path fill="none" stroke="none"/><text fill="rgb(68,68,68)" stroke="none" font-family="helvetica" font-size="9pt" font-style="normal" font-weight="normal" text-decoration="normal" x="0" y="0" text-anchor="start" dominant-baseline="text-after-edge" transform="matrix(1, 0, 0, 1, 481.7575988769531, 548.5)" fill-opacity="1">SREBF1</text><path fill="none" stroke="none"/><text fill="rgb(68,68,68)" stroke="none" font-family="helvetica" font-size="9pt" font-style="normal" font-weight="normal" text-decoration="normal" x="0" y="0" text-anchor="start" dominant-baseline="text-after-edge" transform="matrix(1, 0, 0, 1, 313.2040100097656, 197.83770751953125)" fill-opacity="1">CEBPA</text><path fill="none" stroke="none"/><text fill="rgb(68,68,68)" stroke="none" font-family="helvetica" font-size="9pt" font-style="normal" font-weight="normal" text-decoration="normal" x="0" y="0" text-anchor="start" dominant-baseline="text-after-edge" transform="matrix(1, 0, 0, 1, 355.1691589355469, 488.23431396484375)" fill-opacity="1">MEF2C</text><path fill="none" stroke="none"/><text fill="rgb(68,68,68)" stroke="none" font-family="helvetica" font-size="9pt" font-style="normal" font-weight="normal" text-decoration="normal" x="0" y="0" text-anchor="start" dominant-baseline="text-after-edge" transform="matrix(1, 0, 0, 1, 261.1280212402344, 232.81256103515625)" fill-opacity="1">MLL_KTM2A</text><path fill="none" stroke="none"/><text fill="rgb(68,68,68)" stroke="none" font-family="helvetica" font-size="9pt" font-style="normal" font-weight="normal" text-decoration="normal" x="0" y="0" text-anchor="start" dominant-baseline="text-after-edge" transform="matrix(1, 0, 0, 1, 297.6847229003906, 346.77069091796875)" fill-opacity="1">MYBL2</text><path fill="none" stroke="none"/><text fill="rgb(68,68,68)" stroke="none" font-family="helvetica" font-size="9pt" font-style="normal" font-weight="normal" text-decoration="normal" x="0" y="0" text-anchor="start" dominant-baseline="text-after-edge" transform="matrix(1, 0, 0, 1, 422.5597839355469, 427.3989562988281)" fill-opacity="1">POLII</text><path fill="none" stroke="none"/><text fill="rgb(68,68,68)" stroke="none" font-family="helvetica" font-size="9pt" font-style="normal" font-weight="normal" text-decoration="normal" x="0" y="0" text-anchor="start" dominant-baseline="text-after-edge" transform="matrix(1, 0, 0, 1, 416.3941650390625, 114.33638763427734)" fill-opacity="1">PSER2</text><path fill="none" stroke="none"/><text fill="rgb(68,68,68)" stroke="none" font-family="helvetica" font-size="9pt" font-style="normal" font-weight="normal" text-decoration="normal" x="0" y="0" text-anchor="start" dominant-baseline="text-after-edge" transform="matrix(1, 0, 0, 1, 434.8229064941406, 511.63214111328125)" fill-opacity="1">RARA</text><path fill="none" stroke="none"/><text fill="rgb(68,68,68)" stroke="none" font-family="helvetica" font-size="9pt" font-style="normal" font-weight="normal" text-decoration="normal" x="0" y="0" text-anchor="start" dominant-baseline="text-after-edge" transform="matrix(1, 0, 0, 1, 508.0282287597656, 171.15020751953125)" fill-opacity="1">cohesin</text><path fill="none" stroke="none"/><text fill="rgb(68,68,68)" stroke="none" font-family="helvetica" font-size="9pt" font-style="normal" font-weight="normal" text-decoration="normal" x="0" y="0" text-anchor="start" dominant-baseline="text-after-edge" transform="matrix(1, 0, 0, 1, 478.4396057128906, 382.4056396484375)" fill-opacity="1">WDR5</text><path fill="none" stroke="none"/><text fill="rgb(68,68,68)" stroke="none" font-family="helvetica" font-size="9pt" font-style="normal" font-weight="normal" text-decoration="normal" x="0" y="0" text-anchor="start" dominant-baseline="text-after-edge" transform="matrix(1, 0, 0, 1, 407.57489013671875, 249.3663787841797)" fill-opacity="1">JUND</text><path fill="none" stroke="none"/><text fill="rgb(68,68,68)" stroke="none" font-family="helvetica" font-size="9pt" font-style="normal" font-weight="normal" text-decoration="normal" x="0" y="0" text-anchor="start" dominant-baseline="text-after-edge" transform="matrix(1, 0, 0, 1, 276.24957275390625, 371.0142822265625)" fill-opacity="1">LDB1</text><path fill="none" stroke="none"/><text fill="rgb(68,68,68)" stroke="none" font-family="helvetica" font-size="9pt" font-style="normal" font-weight="normal" text-decoration="normal" x="0" y="0" text-anchor="start" dominant-baseline="text-after-edge" transform="matrix(1, 0, 0, 1, 425.2720947265625, 397.6904602050781)" fill-opacity="1">mediator</text><path fill="none" stroke="none"/><text fill="rgb(68,68,68)" stroke="none" font-family="helvetica" font-size="9pt" font-style="normal" font-weight="normal" text-decoration="normal" x="0" y="0" text-anchor="start" dominant-baseline="text-after-edge" transform="matrix(1, 0, 0, 1, 427.0754089355469, 355.0159912109375)" fill-opacity="1">IKZF1</text><path fill="none" stroke="none"/><text fill="rgb(68,68,68)" stroke="none" font-family="helvetica" font-size="9pt" font-style="normal" font-weight="normal" text-decoration="normal" x="0" y="0" text-anchor="start" dominant-baseline="text-after-edge" transform="matrix(1, 0, 0, 1, 352.8276672363281, 311.7933349609375)" fill-opacity="1">FOXP1</text><path fill="none" stroke="none"/><text fill="rgb(68,68,68)" stroke="none" font-family="helvetica" font-size="9pt" font-style="normal" font-weight="normal" text-decoration="normal" x="0" y="0" text-anchor="start" dominant-baseline="text-after-edge" transform="matrix(1, 0, 0, 1, 285.77191162109375, 381.85198974609375)" fill-opacity="1">GSE1</text><path fill="none" stroke="none"/><text fill="rgb(68,68,68)" stroke="none" font-family="helvetica" font-size="9pt" font-style="normal" font-weight="normal" text-decoration="normal" x="0" y="0" text-anchor="start" dominant-baseline="text-after-edge" transform="matrix(1, 0, 0, 1, 481.89178466796875, 324.8900451660156)" fill-opacity="1">AFF4</text><path fill="none" stroke="none"/><text fill="rgb(68,68,68)" stroke="none" font-family="helvetica" font-size="9pt" font-style="normal" font-weight="normal" text-decoration="normal" x="0" y="0" text-anchor="start" dominant-baseline="text-after-edge" transform="matrix(1, 0, 0, 1, 451.0978698730469, 349.9588317871094)" fill-opacity="1">BRD4</text><path fill="none" stroke="none"/><text fill="rgb(68,68,68)" stroke="none" font-family="helvetica" font-size="9pt" font-style="normal" font-weight="normal" text-decoration="normal" x="0" y="0" text-anchor="start" dominant-baseline="text-after-edge" transform="matrix(1, 0, 0, 1, 264.1392822265625, 353.9817199707031)" fill-opacity="1">CDK13</text><path fill="none" stroke="none"/><text fill="rgb(68,68,68)" stroke="none" font-family="helvetica" font-size="9pt" font-style="normal" font-weight="normal" text-decoration="normal" x="0" y="0" text-anchor="start" dominant-baseline="text-after-edge" transform="matrix(1, 0, 0, 1, 410.2421569824219, 286.23907470703125)" fill-opacity="1">IRF2BP2</text><path fill="none" stroke="none"/><text fill="rgb(68,68,68)" stroke="none" font-family="helvetica" font-size="9pt" font-style="normal" font-weight="normal" text-decoration="normal" x="0" y="0" text-anchor="start" dominant-baseline="text-after-edge" transform="matrix(1, 0, 0, 1, 464.4292297363281, 333.7472229003906)" fill-opacity="1">CDK9</text><path fill="none" stroke="none"/><text fill="rgb(68,68,68)" stroke="none" font-family="helvetica" font-size="9pt" font-style="normal" font-weight="normal" text-decoration="normal" x="0" y="0" text-anchor="start" dominant-baseline="text-after-edge" transform="matrix(1, 0, 0, 1, 318.48345947265625, 180.9696044921875)" fill-opacity="1">CEBPB</text><path fill="none" stroke="none"/><text fill="rgb(68,68,68)" stroke="none" font-family="helvetica" font-size="9pt" font-style="normal" font-weight="normal" text-decoration="normal" x="0" y="0" text-anchor="start" dominant-baseline="text-after-edge" transform="matrix(1, 0, 0, 1, 504.2306823730469, 154.13876342773438)" fill-opacity="1">CTCF</text><path fill="none" stroke="none"/><text fill="rgb(68,68,68)" stroke="none" font-family="helvetica" font-size="9pt" font-style="normal" font-weight="normal" text-decoration="normal" x="0" y="0" text-anchor="start" dominant-baseline="text-after-edge" transform="matrix(1, 0, 0, 1, 450.7708740234375, 431.9132080078125)" fill-opacity="1">ELF2</text><path fill="none" stroke="none"/><text fill="rgb(68,68,68)" stroke="none" font-family="helvetica" font-size="9pt" font-style="normal" font-weight="normal" text-decoration="normal" x="0" y="0" text-anchor="start" dominant-baseline="text-after-edge" transform="matrix(1, 0, 0, 1, 515.3067321777344, 457.65765380859375)" fill-opacity="1">H3K18</text><path fill="none" stroke="none"/><text fill="rgb(68,68,68)" stroke="none" font-family="helvetica" font-size="9pt" font-style="normal" font-weight="normal" text-decoration="normal" x="0" y="0" text-anchor="start" dominant-baseline="text-after-edge" transform="matrix(1, 0, 0, 1, 502.36529541015625, 445.2322998046875)" fill-opacity="1">H3K27ac</text><path fill="none" stroke="none"/><text fill="rgb(68,68,68)" stroke="none" font-family="helvetica" font-size="9pt" font-style="normal" font-weight="normal" text-decoration="normal" x="0" y="0" text-anchor="start" dominant-baseline="text-after-edge" transform="matrix(1, 0, 0, 1, 532.63671875, 357.6395263671875)" fill-opacity="1">H3K27me3</text><path fill="none" stroke="none"/><text fill="rgb(68,68,68)" stroke="none" font-family="helvetica" font-size="9pt" font-style="normal" font-weight="normal" text-decoration="normal" x="0" y="0" text-anchor="start" dominant-baseline="text-after-edge" transform="matrix(1, 0, 0, 1, 516.1696472167969, 488.08795166015625)" fill-opacity="1">H3K36me2</text><path fill="none" stroke="none"/><text fill="rgb(68,68,68)" stroke="none" font-family="helvetica" font-size="9pt" font-style="normal" font-weight="normal" text-decoration="normal" x="0" y="0" text-anchor="start" dominant-baseline="text-after-edge" transform="matrix(1, 0, 0, 1, 416.6462707519531, 95.70291137695312)" fill-opacity="1">H3K36me3</text><path fill="none" stroke="none"/><text fill="rgb(68,68,68)" stroke="none" font-family="helvetica" font-size="9pt" font-style="normal" font-weight="normal" text-decoration="normal" x="0" y="0" text-anchor="start" dominant-baseline="text-after-edge" transform="matrix(1, 0, 0, 1, 267.191650390625, 217.2080841064453)" fill-opacity="1">H3K4me1</text><path fill="none" stroke="none"/><text fill="rgb(68,68,68)" stroke="none" font-family="helvetica" font-size="9pt" font-style="normal" font-weight="normal" text-decoration="normal" x="0" y="0" text-anchor="start" dominant-baseline="text-after-edge" transform="matrix(1, 0, 0, 1, 524.632080078125, 416.76239013671875)" fill-opacity="1">H3K4me3</text><path fill="none" stroke="none"/><text fill="rgb(68,68,68)" stroke="none" font-family="helvetica" font-size="9pt" font-style="normal" font-weight="normal" text-decoration="normal" x="0" y="0" text-anchor="start" dominant-baseline="text-after-edge" transform="matrix(1, 0, 0, 1, 544.4786987304688, 453.06561279296875)" fill-opacity="1">H3K79me2</text><path fill="none" stroke="none"/><text fill="rgb(68,68,68)" stroke="none" font-family="helvetica" font-size="9pt" font-style="normal" font-weight="normal" text-decoration="normal" x="0" y="0" text-anchor="start" dominant-baseline="text-after-edge" transform="matrix(1, 0, 0, 1, 526.2903442382812, 436.79449462890625)" fill-opacity="1">H3K9ac</text><path fill="none" stroke="none"/><text fill="rgb(68,68,68)" stroke="none" font-family="helvetica" font-size="9pt" font-style="normal" font-weight="normal" text-decoration="normal" x="0" y="0" text-anchor="start" dominant-baseline="text-after-edge" transform="matrix(1, 0, 0, 1, 526.31787109375, 387.36962890625)" fill-opacity="1">promoter</text><path fill="none" stroke="rgb(0,0,0)" paint-order="fill" d="M 39.5 578.5 L 570.5 578.5" stroke-opacity="1" stroke-linejoin="bevel" stroke-miterlimit="10" stroke-dasharray=""/><path fill="none" stroke="rgb(0,0,0)" paint-order="fill" d="M 63.5 584.5 L 63.5 576.5 M 179.5 584.5 L 179.5 576.5 M 296.5 584.5 L 296.5 576.5 M 412.5 584.5 L 412.5 576.5 M 529.5 584.5 L 529.5 576.5" stroke-opacity="1" stroke-linejoin="bevel" stroke-miterlimit="10" stroke-dasharray=""/><path fill="none" stroke="rgb(0,0,0)" paint-order="fill" d="M 40.5 582.5 L 40.5 578.5 M 63.5 582.5 L 63.5 578.5 M 86.5 582.5 L 86.5 578.5 M 110.5 582.5 L 110.5 578.5 M 133.5 582.5 L 133.5 578.5 M 156.5 582.5 L 156.5 578.5 M 179.5 582.5 L 179.5 578.5 M 203.5 582.5 L 203.5 578.5 M 226.5 582.5 L 226.5 578.5 M 249.5 582.5 L 249.5 578.5 M 273.5 582.5 L 273.5 578.5 M 296.5 582.5 L 296.5 578.5 M 319.5 582.5 L 319.5 578.5 M 342.5 582.5 L 342.5 578.5 M 366.5 582.5 L 366.5 578.5 M 389.5 582.5 L 389.5 578.5 M 412.5 582.5 L 412.5 578.5 M 436.5 582.5 L 436.5 578.5 M 459.5 582.5 L 459.5 578.5 M 482.5 582.5 L 482.5 578.5 M 506.5 582.5 L 506.5 578.5 M 529.5 582.5 L 529.5 578.5 M 552.5 582.5 L 552.5 578.5" stroke-opacity="1" stroke-linejoin="bevel" stroke-miterlimit="10" stroke-dasharray=""/><text fill="rgb(68,68,68)" stroke="none" font-family="helvetica" font-size="11px" font-style="normal" font-weight="normal" text-decoration="normal" x="50.61837196350098" y="597" text-anchor="start" dominant-baseline="alphabetic" transform="matrix(1, 0, 0, 1, 0.5, 0.5)" fill-opacity="1">−600</text><text fill="rgb(68,68,68)" stroke="none" font-family="helvetica" font-size="11px" font-style="normal" font-weight="normal" text-decoration="normal" x="167.07504081726074" y="597" text-anchor="start" dominant-baseline="alphabetic" transform="matrix(1, 0, 0, 1, 0.5, 0.5)" fill-opacity="1">−400</text><text fill="rgb(68,68,68)" stroke="none" font-family="helvetica" font-size="11px" font-style="normal" font-weight="normal" text-decoration="normal" x="283.53170585632324" y="597" text-anchor="start" dominant-baseline="alphabetic" transform="matrix(1, 0, 0, 1, 0.5, 0.5)" fill-opacity="1">−200</text><text fill="rgb(68,68,68)" stroke="none" font-family="helvetica" font-size="11px" font-style="normal" font-weight="normal" text-decoration="normal" x="409.313401222229" y="597" text-anchor="start" dominant-baseline="alphabetic" transform="matrix(1, 0, 0, 1, 0.5, 0.5)" fill-opacity="1">0</text><text fill="rgb(68,68,68)" stroke="none" font-family="helvetica" font-size="11px" font-style="normal" font-weight="normal" text-decoration="normal" x="519.6534299850464" y="597" text-anchor="start" dominant-baseline="alphabetic" transform="matrix(1, 0, 0, 1, 0.5, 0.5)" fill-opacity="1">200</text><path fill="none" stroke="rgb(0,0,0)" paint-order="fill" d="M 39.5 578.5 L 39.5 28.5" stroke-opacity="1" stroke-linejoin="bevel" stroke-miterlimit="10" stroke-dasharray=""/><path fill="none" stroke="rgb(0,0,0)" paint-order="fill" d="M 33.5 551.5 L 41.5 551.5 M 33.5 458.5 L 41.5 458.5 M 33.5 365.5 L 41.5 365.5 M 33.5 271.5 L 41.5 271.5 M 33.5 178.5 L 41.5 178.5 M 33.5 85.5 L 41.5 85.5" stroke-opacity="1" stroke-linejoin="bevel" stroke-miterlimit="10" stroke-dasharray=""/><path fill="none" stroke="rgb(0,0,0)" paint-order="fill" d="M 35.5 570.5 L 39.5 570.5 M 35.5 551.5 L 39.5 551.5 M 35.5 533.5 L 39.5 533.5 M 35.5 514.5 L 39.5 514.5 M 35.5 495.5 L 39.5 495.5 M 35.5 477.5 L 39.5 477.5 M 35.5 458.5 L 39.5 458.5 M 35.5 439.5 L 39.5 439.5 M 35.5 421.5 L 39.5 421.5 M 35.5 402.5 L 39.5 402.5 M 35.5 383.5 L 39.5 383.5 M 35.5 365.5 L 39.5 365.5 M 35.5 346.5 L 39.5 346.5 M 35.5 327.5 L 39.5 327.5 M 35.5 309.5 L 39.5 309.5 M 35.5 290.5 L 39.5 290.5 M 35.5 271.5 L 39.5 271.5 M 35.5 253.5 L 39.5 253.5 M 35.5 234.5 L 39.5 234.5 M 35.5 215.5 L 39.5 215.5 M 35.5 197.5 L 39.5 197.5 M 35.5 178.5 L 39.5 178.5 M 35.5 159.5 L 39.5 159.5 M 35.5 141.5 L 39.5 141.5 M 35.5 122.5 L 39.5 122.5 M 35.5 103.5 L 39.5 103.5 M 35.5 85.5 L 39.5 85.5 M 35.5 66.5 L 39.5 66.5 M 35.5 47.5 L 39.5 47.5 M 35.5 28.5 L 39.5 28.5" stroke-opacity="1" stroke-linejoin="bevel" stroke-miterlimit="10" stroke-dasharray=""/><text fill="rgb(68,68,68)" stroke="none" font-family="helvetica" font-size="11px" font-style="normal" font-weight="normal" text-decoration="normal" x="3.2333335876464844" y="555.4893188476562" text-anchor="start" dominant-baseline="alphabetic" transform="matrix(1, 0, 0, 1, 0.5, 0.5)" fill-opacity="1">−200</text><text fill="rgb(68,68,68)" stroke="none" font-family="helvetica" font-size="11px" font-style="normal" font-weight="normal" text-decoration="normal" x="3.2333335876464844" y="462.09234619140625" text-anchor="start" dominant-baseline="alphabetic" transform="matrix(1, 0, 0, 1, 0.5, 0.5)" fill-opacity="1">−100</text><text fill="rgb(68,68,68)" stroke="none" font-family="helvetica" font-size="11px" font-style="normal" font-weight="normal" text-decoration="normal" x="21.883333206176758" y="368.6954040527344" text-anchor="start" dominant-baseline="alphabetic" transform="matrix(1, 0, 0, 1, 0.5, 0.5)" fill-opacity="1">0</text><text fill="rgb(68,68,68)" stroke="none" font-family="helvetica" font-size="11px" font-style="normal" font-weight="normal" text-decoration="normal" x="9.649999618530273" y="275.2984619140625" text-anchor="start" dominant-baseline="alphabetic" transform="matrix(1, 0, 0, 1, 0.5, 0.5)" fill-opacity="1">100</text><text fill="rgb(68,68,68)" stroke="none" font-family="helvetica" font-size="11px" font-style="normal" font-weight="normal" text-decoration="normal" x="9.649999618530273" y="181.9014892578125" text-anchor="start" dominant-baseline="alphabetic" transform="matrix(1, 0, 0, 1, 0.5, 0.5)" fill-opacity="1">200</text><text fill="rgb(68,68,68)" stroke="none" font-family="helvetica" font-size="11px" font-style="normal" font-weight="normal" text-decoration="normal" x="9.649999618530273" y="88.5045394897461" text-anchor="start" dominant-baseline="alphabetic" transform="matrix(1, 0, 0, 1, 0.5, 0.5)" fill-opacity="1">300</text><path fill="none" stroke="none"/><text fill="rgb(68,68,68)" stroke="none" font-family="helvetica" font-size="13px" font-style="normal" font-weight="bold" text-decoration="normal" x="0" y="0" text-anchor="start" dominant-baseline="text-after-edge" transform="matrix(1, 0, 0, 1, 39.5, 23.5)" fill-opacity="1">scatter plot of distance of TF in cobinding space</text></svg>