<svg version="1.1" xmlns="http://www.w3.org/2000/svg" xmlns:xlink="http://www.w3.org/1999/xlink" width="600" height="600"><defs><clipPath id="TWTSvHiezTiZ"><path fill="none" stroke="none" d="M 39.5 28.5 L 570.5 28.5 L 570.5 578.5 L 39.5 578.5 L 39.5 28.5"/></clipPath><clipPath id="JulaFAMXfeVU"><path fill="none" stroke="none" d="M 39.5 28.5 L 570.5 28.5 L 570.5 578.5 L 39.5 578.5 L 39.5 28.5"/></clipPath><clipPath id="QbBuSbWImvSk"><path fill="none" stroke="none" d="M 39.5 28.5 L 570.5 28.5 L 570.5 578.5 L 39.5 578.5 L 39.5 28.5"/></clipPath><clipPath id="NufuVkBxrlmz"><path fill="none" stroke="none" d="M 39.5 28.5 L 570.5 28.5 L 570.5 578.5 L 39.5 578.5 L 39.5 28.5"/></clipPath><clipPath id="yFiyqeemhaIF"><path fill="none" stroke="none" d="M 39.5 28.5 L 570.5 28.5 L 570.5 578.5 L 39.5 578.5 L 39.5 28.5"/></clipPath><clipPath id="zXIUtwbxReTH"><path fill="none" stroke="none" d="M 39.5 28.5 L 570.5 28.5 L 570.5 578.5 L 39.5 578.5 L 39.5 28.5"/></clipPath><clipPath id="yCQCRrPnDeye"><path fill="none" stroke="none" d="M 39.5 28.5 L 570.5 28.5 L 570.5 578.5 L 39.5 578.5 L 39.5 28.5"/></clipPath><clipPath id="XgttKTnlqaNS"><path fill="none" stroke="none" d="M 39.5 28.5 L 570.5 28.5 L 570.5 578.5 L 39.5 578.5 L 39.5 28.5"/></clipPath><clipPath id="SQbpSILluVfX"><path fill="none" stroke="none" d="M 39.5 28.5 L 570.5 28.5 L 570.5 578.5 L 39.5 578.5 L 39.5 28.5"/></clipPath></defs><path fill="rgb(255,255,255)" stroke="none" paint-order="stroke" d="M 0.5 0.5 L 600.5 0.5 L 600.5 600.5 L 0.5 600.5 L 0.5 0.5" fill-opacity="1"/><rect fill="#FFFFFF" stroke="none" x="39" y="28" width="531" height="550" transform="matrix(1, 0, 0, 1, 0.5, 0.5)"/><path fill="rgb(255,255,255)" stroke="none" paint-order="stroke" d="M 39.5 28.5 L 570.5 28.5 L 570.5 578.5 L 39.5 578.5 L 39.5 28.5" fill-opacity="1"/><path fill="none" stroke="rgb(229,229,229)" paint-order="fill" d="M 39.5 28.5 L 570.5 28.5 L 570.5 578.5 L 39.5 578.5 L 39.5 28.5" stroke-opacity="1" stroke-linejoin="bevel" stroke-miterlimit="10" stroke-dasharray=""/><path fill="none" stroke="rgb(229,229,229)" paint-order="fill" d="M 125.5 578.5 L 125.5 28.5 M 242.5 578.5 L 242.5 28.5 M 359.5 578.5 L 359.5 28.5 M 477.5 578.5 L 477.5 28.5" stroke-opacity="1" stroke-linejoin="bevel" stroke-miterlimit="10" stroke-dasharray="" clip-path="url(#TWTSvHiezTiZ)"/><path fill="none" stroke="rgb(229,229,229)" paint-order="fill" d="M 39.5 566.5 L 570.5 566.5 M 39.5 444.5 L 570.5 444.5 M 39.5 322.5 L 570.5 322.5 M 39.5 200.5 L 570.5 200.5 M 39.5 77.5 L 570.5 77.5" stroke-opacity="1" stroke-linejoin="bevel" stroke-miterlimit="10" stroke-dasharray="" clip-path="url(#JulaFAMXfeVU)"/><path fill="none" stroke="none"/><path fill="rgb(41,120,142)" stroke="none" paint-order="stroke" d="M 339.5167236328125 129.3939971923828 A 2 2 0 1 1 339.51672263281256 129.39199719271613" fill-opacity="0.8" clip-path="url(#QbBuSbWImvSk)"/><path fill="rgb(41,120,142)" stroke="none" paint-order="stroke" d="M 470.4122314453125 148.63742065429688 A 2 2 0 1 1 470.41223044531256 148.6354206546302" fill-opacity="0.8" clip-path="url(#QbBuSbWImvSk)"/><path fill="rgb(41,120,142)" stroke="none" paint-order="stroke" d="M 548.3636474609375 145.28805541992188 A 2 2 0 1 1 548.3636464609376 145.2860554202552" fill-opacity="0.8" clip-path="url(#QbBuSbWImvSk)"/><path fill="rgb(41,120,142)" stroke="none" paint-order="stroke" d="M 299.61883544921875 478.2468566894531 A 2 2 0 1 1 299.6188344492188 478.24485668978645" fill-opacity="0.8" clip-path="url(#QbBuSbWImvSk)"/><path fill="rgb(41,120,142)" stroke="none" paint-order="stroke" d="M 524.6056518554688 150.45751953125 A 2 2 0 1 1 524.6056508554689 150.45551953158332" fill-opacity="0.8" clip-path="url(#QbBuSbWImvSk)"/><path fill="rgb(41,120,142)" stroke="none" paint-order="stroke" d="M 238.4503631591797 289.3971252441406 A 2 2 0 1 1 238.45036215917978 289.39512524447395" fill-opacity="0.8" clip-path="url(#QbBuSbWImvSk)"/><path fill="rgb(41,120,142)" stroke="none" paint-order="stroke" d="M 370.0457763671875 137.7672882080078 A 2 2 0 1 1 370.04577536718756 137.76528820834113" fill-opacity="0.8" clip-path="url(#QbBuSbWImvSk)"/><path fill="rgb(41,120,142)" stroke="none" paint-order="stroke" d="M 496.3787841796875 245.5381317138672 A 2 2 0 1 1 496.37878317968756 245.5361317142005" fill-opacity="0.8" clip-path="url(#QbBuSbWImvSk)"/><path fill="rgb(41,120,142)" stroke="none" paint-order="stroke" d="M 260.76483154296875 282.5726623535156 A 2 2 0 1 1 260.7648305429688 282.57066235384895" fill-opacity="0.8" clip-path="url(#QbBuSbWImvSk)"/><path fill="rgb(41,120,142)" stroke="none" paint-order="stroke" d="M 427.9234313964844 53.5 A 2 2 0 1 1 427.92343039648443 53.498000000333334" fill-opacity="0.8" clip-path="url(#QbBuSbWImvSk)"/><path fill="rgb(41,120,142)" stroke="none" paint-order="stroke" d="M 403.9995422363281 414.45574951171875 A 2 2 0 1 1 403.9995412363282 414.45374951205207" fill-opacity="0.8" clip-path="url(#QbBuSbWImvSk)"/><path fill="rgb(41,120,142)" stroke="none" paint-order="stroke" d="M 492.0426025390625 437.8326110839844 A 2 2 0 1 1 492.04260153906256 437.8306110843177" fill-opacity="0.8" clip-path="url(#QbBuSbWImvSk)"/><path fill="rgb(41,120,142)" stroke="none" paint-order="stroke" d="M 404.23370361328125 532.724609375 A 2 2 0 1 1 404.2337026132813 532.7226093753334" fill-opacity="0.8" clip-path="url(#QbBuSbWImvSk)"/><path fill="rgb(41,120,142)" stroke="none" paint-order="stroke" d="M 517.0713500976562 441.10791015625 A 2 2 0 1 1 517.0713490976564 441.1059101565833" fill-opacity="0.8" clip-path="url(#QbBuSbWImvSk)"/><path fill="rgb(41,120,142)" stroke="none" paint-order="stroke" d="M 332.5484924316406 460.1719970703125 A 2 2 0 1 1 332.5484914316407 460.1699970706458" fill-opacity="0.8" clip-path="url(#QbBuSbWImvSk)"/><path fill="rgb(41,120,142)" stroke="none" paint-order="stroke" d="M 422.10614013671875 366.9298095703125 A 2 2 0 1 1 422.1061391367188 366.9278095706458" fill-opacity="0.8" clip-path="url(#QbBuSbWImvSk)"/><path fill="rgb(41,120,142)" stroke="none" paint-order="stroke" d="M 343.0653991699219 402.3641662597656 A 2 2 0 1 1 343.06539816992193 402.36216626009895" fill-opacity="0.8" clip-path="url(#QbBuSbWImvSk)"/><path fill="rgb(41,120,142)" stroke="none" paint-order="stroke" d="M 419.6346130371094 89.15116119384766 A 2 2 0 1 1 419.63461203710943 89.14916119418099" fill-opacity="0.8" clip-path="url(#QbBuSbWImvSk)"/><path fill="rgb(41,120,142)" stroke="none" paint-order="stroke" d="M 380.64373779296875 443.9117736816406 A 2 2 0 1 1 380.6437367929688 443.90977368197395" fill-opacity="0.8" clip-path="url(#QbBuSbWImvSk)"/><path fill="rgb(41,120,142)" stroke="none" paint-order="stroke" d="M 459.4372253417969 267.89031982421875 A 2 2 0 1 1 459.43722434179693 267.88831982455207" fill-opacity="0.8" clip-path="url(#QbBuSbWImvSk)"/><path fill="rgb(41,120,142)" stroke="none" paint-order="stroke" d="M 392.8652648925781 147.7277374267578 A 2 2 0 1 1 392.8652638925782 147.72573742709113" fill-opacity="0.8" clip-path="url(#QbBuSbWImvSk)"/><path fill="rgb(41,120,142)" stroke="none" paint-order="stroke" d="M 360.41790771484375 429.64447021484375 A 2 2 0 1 1 360.4179067148438 429.64247021517707" fill-opacity="0.8" clip-path="url(#QbBuSbWImvSk)"/><path fill="rgb(41,120,142)" stroke="none" paint-order="stroke" d="M 65.6363639831543 426.3587646484375 A 2 2 0 1 1 65.63636298315438 426.3567646487708" fill-opacity="0.8" clip-path="url(#QbBuSbWImvSk)"/><path fill="rgb(41,120,142)" stroke="none" paint-order="stroke" d="M 427.80291748046875 141.28660583496094 A 2 2 0 1 1 427.8029164804688 141.28460583529426" fill-opacity="0.8" clip-path="url(#QbBuSbWImvSk)"/><path fill="rgb(41,120,142)" stroke="none" paint-order="stroke" d="M 280.7621765136719 397.88079833984375 A 2 2 0 1 1 280.76217551367193 397.87879834017707" fill-opacity="0.8" clip-path="url(#QbBuSbWImvSk)"/><path fill="rgb(41,120,142)" stroke="none" paint-order="stroke" d="M 437.662353515625 276.150390625 A 2 2 0 1 1 437.66235251562506 276.1483906253333" fill-opacity="0.8" clip-path="url(#QbBuSbWImvSk)"/><path fill="rgb(41,120,142)" stroke="none" paint-order="stroke" d="M 77.09435272216797 446.7038269042969 A 2 2 0 1 1 77.09435172216806 446.7018269046302" fill-opacity="0.8" clip-path="url(#QbBuSbWImvSk)"/><path fill="rgb(41,120,142)" stroke="none" paint-order="stroke" d="M 347.93511962890625 553.5 A 2 2 0 1 1 347.9351186289063 553.4980000003334" fill-opacity="0.8" clip-path="url(#QbBuSbWImvSk)"/><path fill="rgb(41,120,142)" stroke="none" paint-order="stroke" d="M 369.22930908203125 521.9111938476562 A 2 2 0 1 1 369.2293080820313 521.9091938479896" fill-opacity="0.8" clip-path="url(#QbBuSbWImvSk)"/><path fill="none" stroke="none"/><text fill="rgb(68,68,68)" stroke="none" font-family="helvetica" font-size="9pt" font-style="normal" font-weight="normal" text-decoration="normal" x="0" y="0" text-anchor="start" dominant-baseline="text-after-edge" transform="matrix(1, 0, 0, 1, 342.5167236328125, 124.39399719238281)" fill-opacity="1">FLAG_GFI1</text><path fill="none" stroke="none"/><text fill="rgb(68,68,68)" stroke="none" font-family="helvetica" font-size="9pt" font-style="normal" font-weight="normal" text-decoration="normal" x="0" y="0" text-anchor="start" dominant-baseline="text-after-edge" transform="matrix(1, 0, 0, 1, 473.4122314453125, 143.63742065429688)" fill-opacity="1">CEBPA</text><path fill="none" stroke="none"/><text fill="rgb(68,68,68)" stroke="none" font-family="helvetica" font-size="9pt" font-style="normal" font-weight="normal" text-decoration="normal" x="0" y="0" text-anchor="start" dominant-baseline="text-after-edge" transform="matrix(1, 0, 0, 1, 551.3636474609375, 140.28805541992188)" fill-opacity="1">HOXA9</text><path fill="none" stroke="none"/><text fill="rgb(68,68,68)" stroke="none" font-family="helvetica" font-size="9pt" font-style="normal" font-weight="normal" text-decoration="normal" x="0" y="0" text-anchor="start" dominant-baseline="text-after-edge" transform="matrix(1, 0, 0, 1, 302.61883544921875, 473.2468566894531)" fill-opacity="1">PLAGL2</text><path fill="none" stroke="none"/><text fill="rgb(68,68,68)" stroke="none" font-family="helvetica" font-size="9pt" font-style="normal" font-weight="normal" text-decoration="normal" x="0" y="0" text-anchor="start" dominant-baseline="text-after-edge" transform="matrix(1, 0, 0, 1, 527.6056518554688, 145.45751953125)" fill-opacity="1">MEIS1</text><path fill="none" stroke="none"/><text fill="rgb(68,68,68)" stroke="none" font-family="helvetica" font-size="9pt" font-style="normal" font-weight="normal" text-decoration="normal" x="0" y="0" text-anchor="start" dominant-baseline="text-after-edge" transform="matrix(1, 0, 0, 1, 241.4503631591797, 284.3971252441406)" fill-opacity="1">ETV6</text><path fill="none" stroke="none"/><text fill="rgb(68,68,68)" stroke="none" font-family="helvetica" font-size="9pt" font-style="normal" font-weight="normal" text-decoration="normal" x="0" y="0" text-anchor="start" dominant-baseline="text-after-edge" transform="matrix(1, 0, 0, 1, 373.0457763671875, 132.7672882080078)" fill-opacity="1">RUNX1</text><path fill="none" stroke="none"/><text fill="rgb(68,68,68)" stroke="none" font-family="helvetica" font-size="9pt" font-style="normal" font-weight="normal" text-decoration="normal" x="0" y="0" text-anchor="start" dominant-baseline="text-after-edge" transform="matrix(1, 0, 0, 1, 499.3787841796875, 240.5381317138672)" fill-opacity="1">FOSL2</text><path fill="none" stroke="none"/><text fill="rgb(68,68,68)" stroke="none" font-family="helvetica" font-size="9pt" font-style="normal" font-weight="normal" text-decoration="normal" x="0" y="0" text-anchor="start" dominant-baseline="text-after-edge" transform="matrix(1, 0, 0, 1, 263.76483154296875, 277.5726623535156)" fill-opacity="1">FLI1</text><path fill="none" stroke="none"/><text fill="rgb(68,68,68)" stroke="none" font-family="helvetica" font-size="9pt" font-style="normal" font-weight="normal" text-decoration="normal" x="0" y="0" text-anchor="start" dominant-baseline="text-after-edge" transform="matrix(1, 0, 0, 1, 430.9234313964844, 48.5)" fill-opacity="1">GATA2</text><path fill="none" stroke="none"/><text fill="rgb(68,68,68)" stroke="none" font-family="helvetica" font-size="9pt" font-style="normal" font-weight="normal" text-decoration="normal" x="0" y="0" text-anchor="start" dominant-baseline="text-after-edge" transform="matrix(1, 0, 0, 1, 406.9995422363281, 409.45574951171875)" fill-opacity="1">SP1</text><path fill="none" stroke="none"/><text fill="rgb(68,68,68)" stroke="none" font-family="helvetica" font-size="9pt" font-style="normal" font-weight="normal" text-decoration="normal" x="0" y="0" text-anchor="start" dominant-baseline="text-after-edge" transform="matrix(1, 0, 0, 1, 495.0426025390625, 432.8326110839844)" fill-opacity="1">E2F3</text><path fill="none" stroke="none"/><text fill="rgb(68,68,68)" stroke="none" font-family="helvetica" font-size="9pt" font-style="normal" font-weight="normal" text-decoration="normal" x="0" y="0" text-anchor="start" dominant-baseline="text-after-edge" transform="matrix(1, 0, 0, 1, 407.23370361328125, 527.724609375)" fill-opacity="1">ZNF281</text><path fill="none" stroke="none"/><text fill="rgb(68,68,68)" stroke="none" font-family="helvetica" font-size="9pt" font-style="normal" font-weight="normal" text-decoration="normal" x="0" y="0" text-anchor="start" dominant-baseline="text-after-edge" transform="matrix(1, 0, 0, 1, 520.0713500976562, 436.10791015625)" fill-opacity="1">SREBF1</text><path fill="none" stroke="none"/><text fill="rgb(68,68,68)" stroke="none" font-family="helvetica" font-size="9pt" font-style="normal" font-weight="normal" text-decoration="normal" x="0" y="0" text-anchor="start" dominant-baseline="text-after-edge" transform="matrix(1, 0, 0, 1, 335.5484924316406, 455.1719970703125)" fill-opacity="1">LMO2</text><path fill="none" stroke="none"/><text fill="rgb(68,68,68)" stroke="none" font-family="helvetica" font-size="9pt" font-style="normal" font-weight="normal" text-decoration="normal" x="0" y="0" text-anchor="start" dominant-baseline="text-after-edge" transform="matrix(1, 0, 0, 1, 425.10614013671875, 361.9298095703125)" fill-opacity="1">STAT5B</text><path fill="none" stroke="none"/><text fill="rgb(68,68,68)" stroke="none" font-family="helvetica" font-size="9pt" font-style="normal" font-weight="normal" text-decoration="normal" x="0" y="0" text-anchor="start" dominant-baseline="text-after-edge" transform="matrix(1, 0, 0, 1, 346.0653991699219, 397.3641662597656)" fill-opacity="1">ZMYND8</text><path fill="none" stroke="none"/><text fill="rgb(68,68,68)" stroke="none" font-family="helvetica" font-size="9pt" font-style="normal" font-weight="normal" text-decoration="normal" x="0" y="0" text-anchor="start" dominant-baseline="text-after-edge" transform="matrix(1, 0, 0, 1, 422.6346130371094, 84.15116119384766)" fill-opacity="1">LYL1</text><path fill="none" stroke="none"/><text fill="rgb(68,68,68)" stroke="none" font-family="helvetica" font-size="9pt" font-style="normal" font-weight="normal" text-decoration="normal" x="0" y="0" text-anchor="start" dominant-baseline="text-after-edge" transform="matrix(1, 0, 0, 1, 383.64373779296875, 438.9117736816406)" fill-opacity="1">MYC</text><path fill="none" stroke="none"/><text fill="rgb(68,68,68)" stroke="none" font-family="helvetica" font-size="9pt" font-style="normal" font-weight="normal" text-decoration="normal" x="0" y="0" text-anchor="start" dominant-baseline="text-after-edge" transform="matrix(1, 0, 0, 1, 462.4372253417969, 262.89031982421875)" fill-opacity="1">TFAP4</text><path fill="none" stroke="none"/><text fill="rgb(68,68,68)" stroke="none" font-family="helvetica" font-size="9pt" font-style="normal" font-weight="normal" text-decoration="normal" x="0" y="0" text-anchor="start" dominant-baseline="text-after-edge" transform="matrix(1, 0, 0, 1, 395.8652648925781, 142.7277374267578)" fill-opacity="1">RUNX2</text><path fill="none" stroke="none"/><text fill="rgb(68,68,68)" stroke="none" font-family="helvetica" font-size="9pt" font-style="normal" font-weight="normal" text-decoration="normal" x="0" y="0" text-anchor="start" dominant-baseline="text-after-edge" transform="matrix(1, 0, 0, 1, 363.41790771484375, 424.64447021484375)" fill-opacity="1">MAX</text><path fill="none" stroke="none"/><text fill="rgb(68,68,68)" stroke="none" font-family="helvetica" font-size="9pt" font-style="normal" font-weight="normal" text-decoration="normal" x="0" y="0" text-anchor="start" dominant-baseline="text-after-edge" transform="matrix(1, 0, 0, 1, 68.6363639831543, 421.3587646484375)" fill-opacity="1">IRF8</text><path fill="none" stroke="none"/><text fill="rgb(68,68,68)" stroke="none" font-family="helvetica" font-size="9pt" font-style="normal" font-weight="normal" text-decoration="normal" x="0" y="0" text-anchor="start" dominant-baseline="text-after-edge" transform="matrix(1, 0, 0, 1, 430.80291748046875, 136.28660583496094)" fill-opacity="1">MYB</text><path fill="none" stroke="none"/><text fill="rgb(68,68,68)" stroke="none" font-family="helvetica" font-size="9pt" font-style="normal" font-weight="normal" text-decoration="normal" x="0" y="0" text-anchor="start" dominant-baseline="text-after-edge" transform="matrix(1, 0, 0, 1, 283.7621765136719, 392.88079833984375)" fill-opacity="1">ZEB2</text><path fill="none" stroke="none"/><text fill="rgb(68,68,68)" stroke="none" font-family="helvetica" font-size="9pt" font-style="normal" font-weight="normal" text-decoration="normal" x="0" y="0" text-anchor="start" dominant-baseline="text-after-edge" transform="matrix(1, 0, 0, 1, 440.662353515625, 271.150390625)" fill-opacity="1">RXRA</text><path fill="none" stroke="none"/><text fill="rgb(68,68,68)" stroke="none" font-family="helvetica" font-size="9pt" font-style="normal" font-weight="normal" text-decoration="normal" x="0" y="0" text-anchor="start" dominant-baseline="text-after-edge" transform="matrix(1, 0, 0, 1, 80.09435272216797, 441.7038269042969)" fill-opacity="1">SPI1</text><path fill="none" stroke="none"/><text fill="rgb(68,68,68)" stroke="none" font-family="helvetica" font-size="9pt" font-style="normal" font-weight="normal" text-decoration="normal" x="0" y="0" text-anchor="start" dominant-baseline="text-after-edge" transform="matrix(1, 0, 0, 1, 350.93511962890625, 548.5)" fill-opacity="1">MEF2C</text><path fill="none" stroke="none"/><text fill="rgb(68,68,68)" stroke="none" font-family="helvetica" font-size="9pt" font-style="normal" font-weight="normal" text-decoration="normal" x="0" y="0" text-anchor="start" dominant-baseline="text-after-edge" transform="matrix(1, 0, 0, 1, 372.22930908203125, 516.9111938476562)" fill-opacity="1">FLAG_MEF2D</text><path fill="none" stroke="rgb(0,0,0)" paint-order="fill" d="M 39.5 578.5 L 570.5 578.5" stroke-opacity="1" stroke-linejoin="bevel" stroke-miterlimit="10" stroke-dasharray=""/><path fill="none" stroke="rgb(0,0,0)" paint-order="fill" d="M 125.5 584.5 L 125.5 576.5 M 242.5 584.5 L 242.5 576.5 M 359.5 584.5 L 359.5 576.5 M 477.5 584.5 L 477.5 576.5" stroke-opacity="1" stroke-linejoin="bevel" stroke-miterlimit="10" stroke-dasharray=""/><path fill="none" stroke="rgb(0,0,0)" paint-order="fill" d="M 101.5 582.5 L 101.5 578.5 M 78.5 582.5 L 78.5 578.5 M 54.5 582.5 L 54.5 578.5 M 125.5 582.5 L 125.5 578.5 M 148.5 582.5 L 148.5 578.5 M 172.5 582.5 L 172.5 578.5 M 195.5 582.5 L 195.5 578.5 M 219.5 582.5 L 219.5 578.5 M 242.5 582.5 L 242.5 578.5 M 265.5 582.5 L 265.5 578.5 M 289.5 582.5 L 289.5 578.5 M 312.5 582.5 L 312.5 578.5 M 336.5 582.5 L 336.5 578.5 M 359.5 582.5 L 359.5 578.5 M 383.5 582.5 L 383.5 578.5 M 406.5 582.5 L 406.5 578.5 M 430.5 582.5 L 430.5 578.5 M 453.5 582.5 L 453.5 578.5 M 477.5 582.5 L 477.5 578.5 M 500.5 582.5 L 500.5 578.5 M 524.5 582.5 L 524.5 578.5 M 547.5 582.5 L 547.5 578.5" stroke-opacity="1" stroke-linejoin="bevel" stroke-miterlimit="10" stroke-dasharray=""/><text fill="rgb(68,68,68)" stroke="none" font-family="helvetica" font-size="11px" font-style="normal" font-weight="normal" text-decoration="normal" x="112.13966178894043" y="597" text-anchor="start" dominant-baseline="alphabetic" transform="matrix(1, 0, 0, 1, 0.5, 0.5)" fill-opacity="1">−400</text><text fill="rgb(68,68,68)" stroke="none" font-family="helvetica" font-size="11px" font-style="normal" font-weight="normal" text-decoration="normal" x="229.61945915222168" y="597" text-anchor="start" dominant-baseline="alphabetic" transform="matrix(1, 0, 0, 1, 0.5, 0.5)" fill-opacity="1">−200</text><text fill="rgb(68,68,68)" stroke="none" font-family="helvetica" font-size="11px" font-style="normal" font-weight="normal" text-decoration="normal" x="356.424241065979" y="597" text-anchor="start" dominant-baseline="alphabetic" transform="matrix(1, 0, 0, 1, 0.5, 0.5)" fill-opacity="1">0</text><text fill="rgb(68,68,68)" stroke="none" font-family="helvetica" font-size="11px" font-style="normal" font-weight="normal" text-decoration="normal" x="467.787371635437" y="597" text-anchor="start" dominant-baseline="alphabetic" transform="matrix(1, 0, 0, 1, 0.5, 0.5)" fill-opacity="1">200</text><path fill="none" stroke="rgb(0,0,0)" paint-order="fill" d="M 39.5 578.5 L 39.5 28.5" stroke-opacity="1" stroke-linejoin="bevel" stroke-miterlimit="10" stroke-dasharray=""/><path fill="none" stroke="rgb(0,0,0)" paint-order="fill" d="M 33.5 566.5 L 41.5 566.5 M 33.5 444.5 L 41.5 444.5 M 33.5 322.5 L 41.5 322.5 M 33.5 200.5 L 41.5 200.5 M 33.5 77.5 L 41.5 77.5" stroke-opacity="1" stroke-linejoin="bevel" stroke-miterlimit="10" stroke-dasharray=""/><path fill="none" stroke="rgb(0,0,0)" paint-order="fill" d="M 35.5 566.5 L 39.5 566.5 M 35.5 542.5 L 39.5 542.5 M 35.5 518.5 L 39.5 518.5 M 35.5 493.5 L 39.5 493.5 M 35.5 469.5 L 39.5 469.5 M 35.5 444.5 L 39.5 444.5 M 35.5 420.5 L 39.5 420.5 M 35.5 395.5 L 39.5 395.5 M 35.5 371.5 L 39.5 371.5 M 35.5 346.5 L 39.5 346.5 M 35.5 322.5 L 39.5 322.5 M 35.5 297.5 L 39.5 297.5 M 35.5 273.5 L 39.5 273.5 M 35.5 248.5 L 39.5 248.5 M 35.5 224.5 L 39.5 224.5 M 35.5 200.5 L 39.5 200.5 M 35.5 175.5 L 39.5 175.5 M 35.5 151.5 L 39.5 151.5 M 35.5 126.5 L 39.5 126.5 M 35.5 102.5 L 39.5 102.5 M 35.5 77.5 L 39.5 77.5 M 35.5 53.5 L 39.5 53.5 M 35.5 28.5 L 39.5 28.5" stroke-opacity="1" stroke-linejoin="bevel" stroke-miterlimit="10" stroke-dasharray=""/><text fill="rgb(68,68,68)" stroke="none" font-family="helvetica" font-size="11px" font-style="normal" font-weight="normal" text-decoration="normal" x="3.2333335876464844" y="570.424560546875" text-anchor="start" dominant-baseline="alphabetic" transform="matrix(1, 0, 0, 1, 0.5, 0.5)" fill-opacity="1">−400</text><text fill="rgb(68,68,68)" stroke="none" font-family="helvetica" font-size="11px" font-style="normal" font-weight="normal" text-decoration="normal" x="3.2333335876464844" y="448.1457824707031" text-anchor="start" dominant-baseline="alphabetic" transform="matrix(1, 0, 0, 1, 0.5, 0.5)" fill-opacity="1">−200</text><text fill="rgb(68,68,68)" stroke="none" font-family="helvetica" font-size="11px" font-style="normal" font-weight="normal" text-decoration="normal" x="21.883333206176758" y="325.8669738769531" text-anchor="start" dominant-baseline="alphabetic" transform="matrix(1, 0, 0, 1, 0.5, 0.5)" fill-opacity="1">0</text><text fill="rgb(68,68,68)" stroke="none" font-family="helvetica" font-size="11px" font-style="normal" font-weight="normal" text-decoration="normal" x="9.649999618530273" y="203.5881805419922" text-anchor="start" dominant-baseline="alphabetic" transform="matrix(1, 0, 0, 1, 0.5, 0.5)" fill-opacity="1">200</text><text fill="rgb(68,68,68)" stroke="none" font-family="helvetica" font-size="11px" font-style="normal" font-weight="normal" text-decoration="normal" x="9.649999618530273" y="81.30938720703125" text-anchor="start" dominant-baseline="alphabetic" transform="matrix(1, 0, 0, 1, 0.5, 0.5)" fill-opacity="1">400</text><path fill="none" stroke="none"/><text fill="rgb(68,68,68)" stroke="none" font-family="helvetica" font-size="13px" font-style="normal" font-weight="bold" text-decoration="normal" x="0" y="0" text-anchor="start" dominant-baseline="text-after-edge" transform="matrix(1, 0, 0, 1, 39.5, 23.5)" fill-opacity="1">scatter plot of CRC distance in cobinding space</text></svg>