<svg version="1.1" xmlns="http://www.w3.org/2000/svg" xmlns:xlink="http://www.w3.org/1999/xlink" width="600" height="600"><defs><clipPath id="HLQtEZFpoZdK"><path fill="none" stroke="none" d="M 39.5 28.5 L 570.5 28.5 L 570.5 578.5 L 39.5 578.5 L 39.5 28.5"/></clipPath><clipPath id="nLrGTVTFRapP"><path fill="none" stroke="none" d="M 39.5 28.5 L 570.5 28.5 L 570.5 578.5 L 39.5 578.5 L 39.5 28.5"/></clipPath><clipPath id="eMeroOFsnLXo"><path fill="none" stroke="none" d="M 39.5 28.5 L 570.5 28.5 L 570.5 578.5 L 39.5 578.5 L 39.5 28.5"/></clipPath><clipPath id="dmBimuGLrdXz"><path fill="none" stroke="none" d="M 39.5 28.5 L 570.5 28.5 L 570.5 578.5 L 39.5 578.5 L 39.5 28.5"/></clipPath><clipPath id="mxqJhhagwnVG"><path fill="none" stroke="none" d="M 39.5 28.5 L 570.5 28.5 L 570.5 578.5 L 39.5 578.5 L 39.5 28.5"/></clipPath><clipPath id="zaKduSaqMJqy"><path fill="none" stroke="none" d="M 39.5 28.5 L 570.5 28.5 L 570.5 578.5 L 39.5 578.5 L 39.5 28.5"/></clipPath><clipPath id="rJoTqhMcTbGy"><path fill="none" stroke="none" d="M 39.5 28.5 L 570.5 28.5 L 570.5 578.5 L 39.5 578.5 L 39.5 28.5"/></clipPath><clipPath id="QmIiaaOIbZld"><path fill="none" stroke="none" d="M 39.5 28.5 L 570.5 28.5 L 570.5 578.5 L 39.5 578.5 L 39.5 28.5"/></clipPath><clipPath id="JNpxwgGNMMfd"><path fill="none" stroke="none" d="M 39.5 28.5 L 570.5 28.5 L 570.5 578.5 L 39.5 578.5 L 39.5 28.5"/></clipPath></defs><path fill="rgb(255,255,255)" stroke="none" paint-order="stroke" d="M 0.5 0.5 L 600.5 0.5 L 600.5 600.5 L 0.5 600.5 L 0.5 0.5" fill-opacity="1"/><rect fill="#FFFFFF" stroke="none" x="39" y="28" width="531" height="550" transform="matrix(1, 0, 0, 1, 0.5, 0.5)"/><path fill="rgb(255,255,255)" stroke="none" paint-order="stroke" d="M 39.5 28.5 L 570.5 28.5 L 570.5 578.5 L 39.5 578.5 L 39.5 28.5" fill-opacity="1"/><path fill="none" stroke="rgb(229,229,229)" paint-order="fill" d="M 39.5 28.5 L 570.5 28.5 L 570.5 578.5 L 39.5 578.5 L 39.5 28.5" stroke-opacity="1" stroke-linejoin="bevel" stroke-miterlimit="10" stroke-dasharray=""/><path fill="none" stroke="rgb(229,229,229)" paint-order="fill" d="M 113.5 578.5 L 113.5 28.5 M 195.5 578.5 L 195.5 28.5 M 277.5 578.5 L 277.5 28.5 M 359.5 578.5 L 359.5 28.5 M 442.5 578.5 L 442.5 28.5 M 524.5 578.5 L 524.5 28.5" stroke-opacity="1" stroke-linejoin="bevel" stroke-miterlimit="10" stroke-dasharray="" clip-path="url(#HLQtEZFpoZdK)"/><path fill="none" stroke="rgb(229,229,229)" paint-order="fill" d="M 39.5 557.5 L 570.5 557.5 M 39.5 477.5 L 570.5 477.5 M 39.5 398.5 L 570.5 398.5 M 39.5 318.5 L 570.5 318.5 M 39.5 238.5 L 570.5 238.5 M 39.5 158.5 L 570.5 158.5 M 39.5 78.5 L 570.5 78.5" stroke-opacity="1" stroke-linejoin="bevel" stroke-miterlimit="10" stroke-dasharray="" clip-path="url(#nLrGTVTFRapP)"/><path fill="none" stroke="none"/><path fill="rgb(41,120,142)" stroke="none" paint-order="stroke" d="M 377.5957136154175 438.59771728515625 A 4.1045331954956055 4.1045331954956055 0 1 1 377.59571156315104 438.59361275264484" fill-opacity="0.8" clip-path="url(#eMeroOFsnLXo)"/><path fill="rgb(41,120,142)" stroke="none" paint-order="stroke" d="M 159.53025341033936 215.2396697998047 A 4.1045331954956055 4.1045331954956055 0 1 1 159.53025135807292 215.23556526729328" fill-opacity="0.8" clip-path="url(#eMeroOFsnLXo)"/><path fill="rgb(41,120,142)" stroke="none" paint-order="stroke" d="M 87.06151103973389 130.83346557617188 A 4.1045331954956055 4.1045331954956055 0 1 1 87.06150898746746 130.82936104366047" fill-opacity="0.8" clip-path="url(#eMeroOFsnLXo)"/><path fill="rgb(41,120,142)" stroke="none" paint-order="stroke" d="M 319.6767988204956 350.47100830078125 A 4.1045331954956055 4.1045331954956055 0 1 1 319.67679676822917 350.46690376826984" fill-opacity="0.8" clip-path="url(#eMeroOFsnLXo)"/><path fill="rgb(41,120,142)" stroke="none" paint-order="stroke" d="M 101.1882963180542 148.0880889892578 A 4.1045331954956055 4.1045331954956055 0 1 1 101.18829426578777 148.0839844567464" fill-opacity="0.8" clip-path="url(#eMeroOFsnLXo)"/><path fill="rgb(41,120,142)" stroke="none" paint-order="stroke" d="M 290.18003368377686 337.208984375 A 4.1045331954956055 4.1045331954956055 0 1 1 290.1800316315104 337.2048798424886" fill-opacity="0.8" clip-path="url(#eMeroOFsnLXo)"/><path fill="rgb(41,120,142)" stroke="none" paint-order="stroke" d="M 139.71422863006592 299.52899169921875 A 4.1045331954956055 4.1045331954956055 0 1 1 139.71422657779948 299.52488716670734" fill-opacity="0.8" clip-path="url(#eMeroOFsnLXo)"/><path fill="rgb(41,120,142)" stroke="none" paint-order="stroke" d="M 356.70783519744873 368.67120361328125 A 4.1045331954956055 4.1045331954956055 0 1 1 356.7078331451823 368.66709908076984" fill-opacity="0.8" clip-path="url(#eMeroOFsnLXo)"/><path fill="rgb(41,120,142)" stroke="none" paint-order="stroke" d="M 269.46235179901123 328.5563659667969 A 4.1045331954956055 4.1045331954956055 0 1 1 269.4623497467448 328.55226143428547" fill-opacity="0.8" clip-path="url(#eMeroOFsnLXo)"/><path fill="rgb(41,120,142)" stroke="none" paint-order="stroke" d="M 67.7408971786499 253.07313537597656 A 4.1045331954956055 4.1045331954956055 0 1 1 67.74089512638348 253.06903084346516" fill-opacity="0.8" clip-path="url(#eMeroOFsnLXo)"/><path fill="rgb(41,120,142)" stroke="none" paint-order="stroke" d="M 251.7734022140503 439.0225830078125 A 4.1045331954956055 4.1045331954956055 0 1 1 251.77340016178385 439.0184784753011" fill-opacity="0.8" clip-path="url(#eMeroOFsnLXo)"/><path fill="rgb(41,120,142)" stroke="none" paint-order="stroke" d="M 373.45493602752686 270.0089111328125 A 4.1045331954956055 4.1045331954956055 0 1 1 373.4549339752604 270.0048066003011" fill-opacity="0.8" clip-path="url(#eMeroOFsnLXo)"/><path fill="rgb(41,120,142)" stroke="none" paint-order="stroke" d="M 396.6522626876831 382.6442565917969 A 4.1045331954956055 4.1045331954956055 0 1 1 396.65226063541667 382.64015205928547" fill-opacity="0.8" clip-path="url(#eMeroOFsnLXo)"/><path fill="rgb(41,120,142)" stroke="none" paint-order="stroke" d="M 397.37775707244873 259.539306640625 A 4.1045331954956055 4.1045331954956055 0 1 1 397.3777550201823 259.5352021081136" fill-opacity="0.8" clip-path="url(#eMeroOFsnLXo)"/><path fill="rgb(41,120,142)" stroke="none" paint-order="stroke" d="M 192.3965711593628 479.15081787109375 A 4.1045331954956055 4.1045331954956055 0 1 1 192.39656910709635 479.14671333858234" fill-opacity="0.8" clip-path="url(#eMeroOFsnLXo)"/><path fill="rgb(41,120,142)" stroke="none" paint-order="stroke" d="M 375.44053173065186 416.5988464355469 A 4.1045331954956055 4.1045331954956055 0 1 1 375.4405296783854 416.59474190303547" fill-opacity="0.8" clip-path="url(#eMeroOFsnLXo)"/><path fill="rgb(41,120,142)" stroke="none" paint-order="stroke" d="M 176.12636852264404 452.7666931152344 A 4.1045331954956055 4.1045331954956055 0 1 1 176.1263664703776 452.76258858272297" fill-opacity="0.8" clip-path="url(#eMeroOFsnLXo)"/><path fill="rgb(41,120,142)" stroke="none" paint-order="stroke" d="M 101.69960308074951 255.0857391357422 A 4.1045331954956055 4.1045331954956055 0 1 1 101.69960102848309 255.08163460323078" fill-opacity="0.8" clip-path="url(#eMeroOFsnLXo)"/><path fill="rgb(41,120,142)" stroke="none" paint-order="stroke" d="M 221.6379804611206 456.658447265625 A 4.1045331954956055 4.1045331954956055 0 1 1 221.63797840885417 456.6543427331136" fill-opacity="0.8" clip-path="url(#eMeroOFsnLXo)"/><path fill="rgb(41,120,142)" stroke="none" paint-order="stroke" d="M 550.4681806564331 305.3485107421875 A 4.1045331954956055 4.1045331954956055 0 1 1 550.4681786041667 305.3444062096761" fill-opacity="0.8" clip-path="url(#eMeroOFsnLXo)"/><path fill="rgb(41,120,142)" stroke="none" paint-order="stroke" d="M 148.63381481170654 279.0770568847656 A 4.1045331954956055 4.1045331954956055 0 1 1 148.6338127594401 279.0729523522542" fill-opacity="0.8" clip-path="url(#eMeroOFsnLXo)"/><path fill="rgb(41,120,142)" stroke="none" paint-order="stroke" d="M 228.5312910079956 478.5083923339844 A 4.1045331954956055 4.1045331954956055 0 1 1 228.53128895572917 478.50428780147297" fill-opacity="0.8" clip-path="url(#eMeroOFsnLXo)"/><path fill="rgb(41,120,142)" stroke="none" paint-order="stroke" d="M 306.97474193573 53.5 A 4.1045331954956055 4.1045331954956055 0 1 1 306.97473988346354 53.49589546748859" fill-opacity="0.8" clip-path="url(#eMeroOFsnLXo)"/><path fill="rgb(41,120,142)" stroke="none" paint-order="stroke" d="M 140.66277599334717 249.53057861328125 A 4.1045331954956055 4.1045331954956055 0 1 1 140.66277394108073 249.52647408076984" fill-opacity="0.8" clip-path="url(#eMeroOFsnLXo)"/><path fill="rgb(41,120,142)" stroke="none" paint-order="stroke" d="M 201.80498790740967 200.26358032226562 A 4.1045331954956055 4.1045331954956055 0 1 1 201.80498585514323 200.25947578975422" fill-opacity="0.8" clip-path="url(#eMeroOFsnLXo)"/><path fill="rgb(41,120,142)" stroke="none" paint-order="stroke" d="M 536.8192548751831 288.8866271972656 A 4.1045331954956055 4.1045331954956055 0 1 1 536.8192528229167 288.8825226647542" fill-opacity="0.8" clip-path="url(#eMeroOFsnLXo)"/><path fill="rgb(41,120,142)" stroke="none" paint-order="stroke" d="M 307.17444896698 74.69355773925781 A 4.1045331954956055 4.1045331954956055 0 1 1 307.17444691471354 74.6894532067464" fill-opacity="0.8" clip-path="url(#eMeroOFsnLXo)"/><path fill="rgb(41,120,142)" stroke="none" paint-order="stroke" d="M 173.02649974822998 553.5 A 4.1045331954956055 4.1045331954956055 0 1 1 173.02649769596354 553.4958954674886" fill-opacity="0.8" clip-path="url(#eMeroOFsnLXo)"/><path fill="rgb(41,120,142)" stroke="none" paint-order="stroke" d="M 181.63268566131592 519.6551513671875 A 4.1045331954956055 4.1045331954956055 0 1 1 181.63268360904948 519.6510468346761" fill-opacity="0.8" clip-path="url(#eMeroOFsnLXo)"/><path fill="none" stroke="none"/><text fill="rgb(68,68,68)" stroke="none" font-family="helvetica" font-size="9pt" font-style="normal" font-weight="normal" text-decoration="normal" x="0" y="0" text-anchor="start" dominant-baseline="text-after-edge" transform="matrix(1, 0, 0, 1, 378.4911804199219, 433.59771728515625)" fill-opacity="1">FLAG_GFI1</text><path fill="none" stroke="none"/><text fill="rgb(68,68,68)" stroke="none" font-family="helvetica" font-size="9pt" font-style="normal" font-weight="normal" text-decoration="normal" x="0" y="0" text-anchor="start" dominant-baseline="text-after-edge" transform="matrix(1, 0, 0, 1, 160.42572021484375, 210.2396697998047)" fill-opacity="1">CEBPA</text><path fill="none" stroke="none"/><text fill="rgb(68,68,68)" stroke="none" font-family="helvetica" font-size="9pt" font-style="normal" font-weight="normal" text-decoration="normal" x="0" y="0" text-anchor="start" dominant-baseline="text-after-edge" transform="matrix(1, 0, 0, 1, 87.95697784423828, 125.83346557617188)" fill-opacity="1">HOXA9</text><path fill="none" stroke="none"/><text fill="rgb(68,68,68)" stroke="none" font-family="helvetica" font-size="9pt" font-style="normal" font-weight="normal" text-decoration="normal" x="0" y="0" text-anchor="start" dominant-baseline="text-after-edge" transform="matrix(1, 0, 0, 1, 320.572265625, 345.47100830078125)" fill-opacity="1">PLAGL2</text><path fill="none" stroke="none"/><text fill="rgb(68,68,68)" stroke="none" font-family="helvetica" font-size="9pt" font-style="normal" font-weight="normal" text-decoration="normal" x="0" y="0" text-anchor="start" dominant-baseline="text-after-edge" transform="matrix(1, 0, 0, 1, 102.0837631225586, 143.0880889892578)" fill-opacity="1">MEIS1</text><path fill="none" stroke="none"/><text fill="rgb(68,68,68)" stroke="none" font-family="helvetica" font-size="9pt" font-style="normal" font-weight="normal" text-decoration="normal" x="0" y="0" text-anchor="start" dominant-baseline="text-after-edge" transform="matrix(1, 0, 0, 1, 291.07550048828125, 332.208984375)" fill-opacity="1">ETV6</text><path fill="none" stroke="none"/><text fill="rgb(68,68,68)" stroke="none" font-family="helvetica" font-size="9pt" font-style="normal" font-weight="normal" text-decoration="normal" x="0" y="0" text-anchor="start" dominant-baseline="text-after-edge" transform="matrix(1, 0, 0, 1, 140.6096954345703, 294.52899169921875)" fill-opacity="1">RUNX1</text><path fill="none" stroke="none"/><text fill="rgb(68,68,68)" stroke="none" font-family="helvetica" font-size="9pt" font-style="normal" font-weight="normal" text-decoration="normal" x="0" y="0" text-anchor="start" dominant-baseline="text-after-edge" transform="matrix(1, 0, 0, 1, 357.6033020019531, 363.67120361328125)" fill-opacity="1">FOSL2</text><path fill="none" stroke="none"/><text fill="rgb(68,68,68)" stroke="none" font-family="helvetica" font-size="9pt" font-style="normal" font-weight="normal" text-decoration="normal" x="0" y="0" text-anchor="start" dominant-baseline="text-after-edge" transform="matrix(1, 0, 0, 1, 270.3578186035156, 323.5563659667969)" fill-opacity="1">FLI1</text><path fill="none" stroke="none"/><text fill="rgb(68,68,68)" stroke="none" font-family="helvetica" font-size="9pt" font-style="normal" font-weight="normal" text-decoration="normal" x="0" y="0" text-anchor="start" dominant-baseline="text-after-edge" transform="matrix(1, 0, 0, 1, 68.6363639831543, 248.07313537597656)" fill-opacity="1">GATA2</text><path fill="none" stroke="none"/><text fill="rgb(68,68,68)" stroke="none" font-family="helvetica" font-size="9pt" font-style="normal" font-weight="normal" text-decoration="normal" x="0" y="0" text-anchor="start" dominant-baseline="text-after-edge" transform="matrix(1, 0, 0, 1, 252.6688690185547, 434.0225830078125)" fill-opacity="1">SP1</text><path fill="none" stroke="none"/><text fill="rgb(68,68,68)" stroke="none" font-family="helvetica" font-size="9pt" font-style="normal" font-weight="normal" text-decoration="normal" x="0" y="0" text-anchor="start" dominant-baseline="text-after-edge" transform="matrix(1, 0, 0, 1, 374.35040283203125, 265.0089111328125)" fill-opacity="1">E2F3</text><path fill="none" stroke="none"/><text fill="rgb(68,68,68)" stroke="none" font-family="helvetica" font-size="9pt" font-style="normal" font-weight="normal" text-decoration="normal" x="0" y="0" text-anchor="start" dominant-baseline="text-after-edge" transform="matrix(1, 0, 0, 1, 397.5477294921875, 377.6442565917969)" fill-opacity="1">ZNF281</text><path fill="none" stroke="none"/><text fill="rgb(68,68,68)" stroke="none" font-family="helvetica" font-size="9pt" font-style="normal" font-weight="normal" text-decoration="normal" x="0" y="0" text-anchor="start" dominant-baseline="text-after-edge" transform="matrix(1, 0, 0, 1, 398.2732238769531, 254.539306640625)" fill-opacity="1">SREBF1</text><path fill="none" stroke="none"/><text fill="rgb(68,68,68)" stroke="none" font-family="helvetica" font-size="9pt" font-style="normal" font-weight="normal" text-decoration="normal" x="0" y="0" text-anchor="start" dominant-baseline="text-after-edge" transform="matrix(1, 0, 0, 1, 193.2920379638672, 474.15081787109375)" fill-opacity="1">LMO2</text><path fill="none" stroke="none"/><text fill="rgb(68,68,68)" stroke="none" font-family="helvetica" font-size="9pt" font-style="normal" font-weight="normal" text-decoration="normal" x="0" y="0" text-anchor="start" dominant-baseline="text-after-edge" transform="matrix(1, 0, 0, 1, 376.33599853515625, 411.5988464355469)" fill-opacity="1">STAT5B</text><path fill="none" stroke="none"/><text fill="rgb(68,68,68)" stroke="none" font-family="helvetica" font-size="9pt" font-style="normal" font-weight="normal" text-decoration="normal" x="0" y="0" text-anchor="start" dominant-baseline="text-after-edge" transform="matrix(1, 0, 0, 1, 177.02183532714844, 447.7666931152344)" fill-opacity="1">ZMYND8</text><path fill="none" stroke="none"/><text fill="rgb(68,68,68)" stroke="none" font-family="helvetica" font-size="9pt" font-style="normal" font-weight="normal" text-decoration="normal" x="0" y="0" text-anchor="start" dominant-baseline="text-after-edge" transform="matrix(1, 0, 0, 1, 102.5950698852539, 250.0857391357422)" fill-opacity="1">LYL1</text><path fill="none" stroke="none"/><text fill="rgb(68,68,68)" stroke="none" font-family="helvetica" font-size="9pt" font-style="normal" font-weight="normal" text-decoration="normal" x="0" y="0" text-anchor="start" dominant-baseline="text-after-edge" transform="matrix(1, 0, 0, 1, 222.533447265625, 451.658447265625)" fill-opacity="1">MYC</text><path fill="none" stroke="none"/><text fill="rgb(68,68,68)" stroke="none" font-family="helvetica" font-size="9pt" font-style="normal" font-weight="normal" text-decoration="normal" x="0" y="0" text-anchor="start" dominant-baseline="text-after-edge" transform="matrix(1, 0, 0, 1, 551.3636474609375, 300.3485107421875)" fill-opacity="1">TFAP4</text><path fill="none" stroke="none"/><text fill="rgb(68,68,68)" stroke="none" font-family="helvetica" font-size="9pt" font-style="normal" font-weight="normal" text-decoration="normal" x="0" y="0" text-anchor="start" dominant-baseline="text-after-edge" transform="matrix(1, 0, 0, 1, 149.52928161621094, 274.0770568847656)" fill-opacity="1">RUNX2</text><path fill="none" stroke="none"/><text fill="rgb(68,68,68)" stroke="none" font-family="helvetica" font-size="9pt" font-style="normal" font-weight="normal" text-decoration="normal" x="0" y="0" text-anchor="start" dominant-baseline="text-after-edge" transform="matrix(1, 0, 0, 1, 229.4267578125, 473.5083923339844)" fill-opacity="1">MAX</text><path fill="none" stroke="none"/><text fill="rgb(68,68,68)" stroke="none" font-family="helvetica" font-size="9pt" font-style="normal" font-weight="normal" text-decoration="normal" x="0" y="0" text-anchor="start" dominant-baseline="text-after-edge" transform="matrix(1, 0, 0, 1, 307.8702087402344, 48.5)" fill-opacity="1">IRF8</text><path fill="none" stroke="none"/><text fill="rgb(68,68,68)" stroke="none" font-family="helvetica" font-size="9pt" font-style="normal" font-weight="normal" text-decoration="normal" x="0" y="0" text-anchor="start" dominant-baseline="text-after-edge" transform="matrix(1, 0, 0, 1, 141.55824279785156, 244.53057861328125)" fill-opacity="1">MYB</text><path fill="none" stroke="none"/><text fill="rgb(68,68,68)" stroke="none" font-family="helvetica" font-size="9pt" font-style="normal" font-weight="normal" text-decoration="normal" x="0" y="0" text-anchor="start" dominant-baseline="text-after-edge" transform="matrix(1, 0, 0, 1, 202.70045471191406, 195.26358032226562)" fill-opacity="1">ZEB2</text><path fill="none" stroke="none"/><text fill="rgb(68,68,68)" stroke="none" font-family="helvetica" font-size="9pt" font-style="normal" font-weight="normal" text-decoration="normal" x="0" y="0" text-anchor="start" dominant-baseline="text-after-edge" transform="matrix(1, 0, 0, 1, 537.7147216796875, 283.8866271972656)" fill-opacity="1">RXRA</text><path fill="none" stroke="none"/><text fill="rgb(68,68,68)" stroke="none" font-family="helvetica" font-size="9pt" font-style="normal" font-weight="normal" text-decoration="normal" x="0" y="0" text-anchor="start" dominant-baseline="text-after-edge" transform="matrix(1, 0, 0, 1, 308.0699157714844, 69.69355773925781)" fill-opacity="1">SPI1</text><path fill="none" stroke="none"/><text fill="rgb(68,68,68)" stroke="none" font-family="helvetica" font-size="9pt" font-style="normal" font-weight="normal" text-decoration="normal" x="0" y="0" text-anchor="start" dominant-baseline="text-after-edge" transform="matrix(1, 0, 0, 1, 173.92196655273438, 548.5)" fill-opacity="1">MEF2C</text><path fill="none" stroke="none"/><text fill="rgb(68,68,68)" stroke="none" font-family="helvetica" font-size="9pt" font-style="normal" font-weight="normal" text-decoration="normal" x="0" y="0" text-anchor="start" dominant-baseline="text-after-edge" transform="matrix(1, 0, 0, 1, 182.5281524658203, 514.6551513671875)" fill-opacity="1">FLAG_MEF2D</text><path fill="none" stroke="rgb(0,0,0)" paint-order="fill" d="M 39.5 578.5 L 570.5 578.5" stroke-opacity="1" stroke-linejoin="bevel" stroke-miterlimit="10" stroke-dasharray=""/><path fill="none" stroke="rgb(0,0,0)" paint-order="fill" d="M 113.5 584.5 L 113.5 576.5 M 195.5 584.5 L 195.5 576.5 M 277.5 584.5 L 277.5 576.5 M 359.5 584.5 L 359.5 576.5 M 442.5 584.5 L 442.5 576.5 M 524.5 584.5 L 524.5 576.5" stroke-opacity="1" stroke-linejoin="bevel" stroke-miterlimit="10" stroke-dasharray=""/><path fill="none" stroke="rgb(0,0,0)" paint-order="fill" d="M 97.5 582.5 L 97.5 578.5 M 80.5 582.5 L 80.5 578.5 M 64.5 582.5 L 64.5 578.5 M 48.5 582.5 L 48.5 578.5 M 113.5 582.5 L 113.5 578.5 M 130.5 582.5 L 130.5 578.5 M 146.5 582.5 L 146.5 578.5 M 162.5 582.5 L 162.5 578.5 M 179.5 582.5 L 179.5 578.5 M 195.5 582.5 L 195.5 578.5 M 212.5 582.5 L 212.5 578.5 M 228.5 582.5 L 228.5 578.5 M 245.5 582.5 L 245.5 578.5 M 261.5 582.5 L 261.5 578.5 M 277.5 582.5 L 277.5 578.5 M 294.5 582.5 L 294.5 578.5 M 310.5 582.5 L 310.5 578.5 M 327.5 582.5 L 327.5 578.5 M 343.5 582.5 L 343.5 578.5 M 359.5 582.5 L 359.5 578.5 M 376.5 582.5 L 376.5 578.5 M 392.5 582.5 L 392.5 578.5 M 409.5 582.5 L 409.5 578.5 M 425.5 582.5 L 425.5 578.5 M 442.5 582.5 L 442.5 578.5 M 458.5 582.5 L 458.5 578.5 M 474.5 582.5 L 474.5 578.5 M 491.5 582.5 L 491.5 578.5 M 507.5 582.5 L 507.5 578.5 M 524.5 582.5 L 524.5 578.5 M 540.5 582.5 L 540.5 578.5 M 557.5 582.5 L 557.5 578.5" stroke-opacity="1" stroke-linejoin="bevel" stroke-miterlimit="10" stroke-dasharray=""/><text fill="rgb(68,68,68)" stroke="none" font-family="helvetica" font-size="11px" font-style="normal" font-weight="normal" text-decoration="normal" x="100.84120750427246" y="597" text-anchor="start" dominant-baseline="alphabetic" transform="matrix(1, 0, 0, 1, 0.5, 0.5)" fill-opacity="1">−400</text><text fill="rgb(68,68,68)" stroke="none" font-family="helvetica" font-size="11px" font-style="normal" font-weight="normal" text-decoration="normal" x="182.9318675994873" y="597" text-anchor="start" dominant-baseline="alphabetic" transform="matrix(1, 0, 0, 1, 0.5, 0.5)" fill-opacity="1">−200</text><text fill="rgb(68,68,68)" stroke="none" font-family="helvetica" font-size="11px" font-style="normal" font-weight="normal" text-decoration="normal" x="274.34751987457275" y="597" text-anchor="start" dominant-baseline="alphabetic" transform="matrix(1, 0, 0, 1, 0.5, 0.5)" fill-opacity="1">0</text><text fill="rgb(68,68,68)" stroke="none" font-family="helvetica" font-size="11px" font-style="normal" font-weight="normal" text-decoration="normal" x="350.3215208053589" y="597" text-anchor="start" dominant-baseline="alphabetic" transform="matrix(1, 0, 0, 1, 0.5, 0.5)" fill-opacity="1">200</text><text fill="rgb(68,68,68)" stroke="none" font-family="helvetica" font-size="11px" font-style="normal" font-weight="normal" text-decoration="normal" x="432.41218852996826" y="597" text-anchor="start" dominant-baseline="alphabetic" transform="matrix(1, 0, 0, 1, 0.5, 0.5)" fill-opacity="1">400</text><text fill="rgb(68,68,68)" stroke="none" font-family="helvetica" font-size="11px" font-style="normal" font-weight="normal" text-decoration="normal" x="514.5028562545776" y="597" text-anchor="start" dominant-baseline="alphabetic" transform="matrix(1, 0, 0, 1, 0.5, 0.5)" fill-opacity="1">600</text><path fill="none" stroke="rgb(0,0,0)" paint-order="fill" d="M 39.5 578.5 L 39.5 28.5" stroke-opacity="1" stroke-linejoin="bevel" stroke-miterlimit="10" stroke-dasharray=""/><path fill="none" stroke="rgb(0,0,0)" paint-order="fill" d="M 33.5 557.5 L 41.5 557.5 M 33.5 477.5 L 41.5 477.5 M 33.5 398.5 L 41.5 398.5 M 33.5 318.5 L 41.5 318.5 M 33.5 238.5 L 41.5 238.5 M 33.5 158.5 L 41.5 158.5 M 33.5 78.5 L 41.5 78.5" stroke-opacity="1" stroke-linejoin="bevel" stroke-miterlimit="10" stroke-dasharray=""/><path fill="none" stroke="rgb(0,0,0)" paint-order="fill" d="M 35.5 573.5 L 39.5 573.5 M 35.5 557.5 L 39.5 557.5 M 35.5 541.5 L 39.5 541.5 M 35.5 525.5 L 39.5 525.5 M 35.5 509.5 L 39.5 509.5 M 35.5 493.5 L 39.5 493.5 M 35.5 477.5 L 39.5 477.5 M 35.5 461.5 L 39.5 461.5 M 35.5 445.5 L 39.5 445.5 M 35.5 429.5 L 39.5 429.5 M 35.5 414.5 L 39.5 414.5 M 35.5 398.5 L 39.5 398.5 M 35.5 382.5 L 39.5 382.5 M 35.5 366.5 L 39.5 366.5 M 35.5 350.5 L 39.5 350.5 M 35.5 334.5 L 39.5 334.5 M 35.5 318.5 L 39.5 318.5 M 35.5 302.5 L 39.5 302.5 M 35.5 286.5 L 39.5 286.5 M 35.5 270.5 L 39.5 270.5 M 35.5 254.5 L 39.5 254.5 M 35.5 238.5 L 39.5 238.5 M 35.5 222.5 L 39.5 222.5 M 35.5 206.5 L 39.5 206.5 M 35.5 190.5 L 39.5 190.5 M 35.5 174.5 L 39.5 174.5 M 35.5 158.5 L 39.5 158.5 M 35.5 142.5 L 39.5 142.5 M 35.5 126.5 L 39.5 126.5 M 35.5 110.5 L 39.5 110.5 M 35.5 94.5 L 39.5 94.5 M 35.5 78.5 L 39.5 78.5 M 35.5 62.5 L 39.5 62.5 M 35.5 46.5 L 39.5 46.5 M 35.5 30.5 L 39.5 30.5" stroke-opacity="1" stroke-linejoin="bevel" stroke-miterlimit="10" stroke-dasharray=""/><text fill="rgb(68,68,68)" stroke="none" font-family="helvetica" font-size="11px" font-style="normal" font-weight="normal" text-decoration="normal" x="3.2333335876464844" y="561.2655639648438" text-anchor="start" dominant-baseline="alphabetic" transform="matrix(1, 0, 0, 1, 0.5, 0.5)" fill-opacity="1">−600</text><text fill="rgb(68,68,68)" stroke="none" font-family="helvetica" font-size="11px" font-style="normal" font-weight="normal" text-decoration="normal" x="3.2333335876464844" y="481.41021728515625" text-anchor="start" dominant-baseline="alphabetic" transform="matrix(1, 0, 0, 1, 0.5, 0.5)" fill-opacity="1">−400</text><text fill="rgb(68,68,68)" stroke="none" font-family="helvetica" font-size="11px" font-style="normal" font-weight="normal" text-decoration="normal" x="3.2333335876464844" y="401.5549011230469" text-anchor="start" dominant-baseline="alphabetic" transform="matrix(1, 0, 0, 1, 0.5, 0.5)" fill-opacity="1">−200</text><text fill="rgb(68,68,68)" stroke="none" font-family="helvetica" font-size="11px" font-style="normal" font-weight="normal" text-decoration="normal" x="21.883333206176758" y="321.6995544433594" text-anchor="start" dominant-baseline="alphabetic" transform="matrix(1, 0, 0, 1, 0.5, 0.5)" fill-opacity="1">0</text><text fill="rgb(68,68,68)" stroke="none" font-family="helvetica" font-size="11px" font-style="normal" font-weight="normal" text-decoration="normal" x="9.649999618530273" y="241.84423828125" text-anchor="start" dominant-baseline="alphabetic" transform="matrix(1, 0, 0, 1, 0.5, 0.5)" fill-opacity="1">200</text><text fill="rgb(68,68,68)" stroke="none" font-family="helvetica" font-size="11px" font-style="normal" font-weight="normal" text-decoration="normal" x="9.649999618530273" y="161.98892211914062" text-anchor="start" dominant-baseline="alphabetic" transform="matrix(1, 0, 0, 1, 0.5, 0.5)" fill-opacity="1">400</text><text fill="rgb(68,68,68)" stroke="none" font-family="helvetica" font-size="11px" font-style="normal" font-weight="normal" text-decoration="normal" x="9.649999618530273" y="82.13359069824219" text-anchor="start" dominant-baseline="alphabetic" transform="matrix(1, 0, 0, 1, 0.5, 0.5)" fill-opacity="1">600</text><path fill="none" stroke="none"/><text fill="rgb(68,68,68)" stroke="none" font-family="helvetica" font-size="13px" font-style="normal" font-weight="bold" text-decoration="normal" x="0" y="0" text-anchor="start" dominant-baseline="text-after-edge" transform="matrix(1, 0, 0, 1, 39.5, 23.5)" fill-opacity="1">scatter plot of CRC distance in cobinding space</text></svg>