<svg version="1.1" xmlns="http://www.w3.org/2000/svg" xmlns:xlink="http://www.w3.org/1999/xlink" width="600" height="600"><defs><clipPath id="oTNVifoWlbdJ"><path fill="none" stroke="none" d="M 39.5 28.5 L 570.5 28.5 L 570.5 578.5 L 39.5 578.5 L 39.5 28.5"/></clipPath><clipPath id="khipWJQhgJTt"><path fill="none" stroke="none" d="M 39.5 28.5 L 570.5 28.5 L 570.5 578.5 L 39.5 578.5 L 39.5 28.5"/></clipPath><clipPath id="zMkDLQJRwKuO"><path fill="none" stroke="none" d="M 39.5 28.5 L 570.5 28.5 L 570.5 578.5 L 39.5 578.5 L 39.5 28.5"/></clipPath><clipPath id="XMGLnTBweskF"><path fill="none" stroke="none" d="M 39.5 28.5 L 570.5 28.5 L 570.5 578.5 L 39.5 578.5 L 39.5 28.5"/></clipPath><clipPath id="cmEnBgAHeIJn"><path fill="none" stroke="none" d="M 39.5 28.5 L 570.5 28.5 L 570.5 578.5 L 39.5 578.5 L 39.5 28.5"/></clipPath><clipPath id="AwBSdSTXLTIy"><path fill="none" stroke="none" d="M 39.5 28.5 L 570.5 28.5 L 570.5 578.5 L 39.5 578.5 L 39.5 28.5"/></clipPath><clipPath id="aGVerESDOFac"><path fill="none" stroke="none" d="M 39.5 28.5 L 570.5 28.5 L 570.5 578.5 L 39.5 578.5 L 39.5 28.5"/></clipPath><clipPath id="HRGPBoimFEaF"><path fill="none" stroke="none" d="M 39.5 28.5 L 570.5 28.5 L 570.5 578.5 L 39.5 578.5 L 39.5 28.5"/></clipPath><clipPath id="VlTebUHMyNZd"><path fill="none" stroke="none" d="M 39.5 28.5 L 570.5 28.5 L 570.5 578.5 L 39.5 578.5 L 39.5 28.5"/></clipPath></defs><path fill="rgb(255,255,255)" stroke="none" paint-order="stroke" d="M 0.5 0.5 L 600.5 0.5 L 600.5 600.5 L 0.5 600.5 L 0.5 0.5" fill-opacity="1"/><rect fill="#FFFFFF" stroke="none" x="39" y="28" width="531" height="550" transform="matrix(1, 0, 0, 1, 0.5, 0.5)"/><path fill="rgb(255,255,255)" stroke="none" paint-order="stroke" d="M 39.5 28.5 L 570.5 28.5 L 570.5 578.5 L 39.5 578.5 L 39.5 28.5" fill-opacity="1"/><path fill="none" stroke="rgb(229,229,229)" paint-order="fill" d="M 39.5 28.5 L 570.5 28.5 L 570.5 578.5 L 39.5 578.5 L 39.5 28.5" stroke-opacity="1" stroke-linejoin="bevel" stroke-miterlimit="10" stroke-dasharray=""/><path fill="none" stroke="rgb(229,229,229)" paint-order="fill" d="M 46.5 578.5 L 46.5 28.5 M 173.5 578.5 L 173.5 28.5 M 300.5 578.5 L 300.5 28.5 M 427.5 578.5 L 427.5 28.5 M 555.5 578.5 L 555.5 28.5" stroke-opacity="1" stroke-linejoin="bevel" stroke-miterlimit="10" stroke-dasharray="" clip-path="url(#oTNVifoWlbdJ)"/><path fill="none" stroke="rgb(229,229,229)" paint-order="fill" d="M 39.5 520.5 L 570.5 520.5 M 39.5 443.5 L 570.5 443.5 M 39.5 366.5 L 570.5 366.5 M 39.5 289.5 L 570.5 289.5 M 39.5 213.5 L 570.5 213.5 M 39.5 136.5 L 570.5 136.5 M 39.5 59.5 L 570.5 59.5" stroke-opacity="1" stroke-linejoin="bevel" stroke-miterlimit="10" stroke-dasharray="" clip-path="url(#khipWJQhgJTt)"/><path fill="none" stroke="none"/><path fill="rgb(253,231,36)" stroke="none" paint-order="stroke" d="M 226.28804349899292 290.019287109375 A 6.362735271453857 6.362735271453857 0 1 1 226.28804031762556 290.012924375164" fill-opacity="0.8" clip-path="url(#zMkDLQJRwKuO)"/><path fill="rgb(253,231,36)" stroke="none" paint-order="stroke" d="M 552.7263827323914 200.30877685546875 A 6.362735271453857 6.362735271453857 0 1 1 552.726379551024 200.30241412125775" fill-opacity="0.8" clip-path="url(#zMkDLQJRwKuO)"/><path fill="rgb(253,231,36)" stroke="none" paint-order="stroke" d="M 202.7641634941101 419.8776550292969 A 6.362735271453857 6.362735271453857 0 1 1 202.76416031274275 419.8712922950859" fill-opacity="0.8" clip-path="url(#zMkDLQJRwKuO)"/><path fill="rgb(253,231,36)" stroke="none" paint-order="stroke" d="M 452.40045499801636 246.50990295410156 A 6.362735271453857 6.362735271453857 0 1 1 452.40045181664897 246.50354021989057" fill-opacity="0.8" clip-path="url(#zMkDLQJRwKuO)"/><path fill="rgb(253,231,36)" stroke="none" paint-order="stroke" d="M 204.35480070114136 395.919677734375 A 6.362735271453857 6.362735271453857 0 1 1 204.354797519774 395.913315000164" fill-opacity="0.8" clip-path="url(#zMkDLQJRwKuO)"/><path fill="rgb(253,231,36)" stroke="none" paint-order="stroke" d="M 456.2894015312195 169.09259033203125 A 6.362735271453857 6.362735271453857 0 1 1 456.2893983498521 169.08622759782025" fill-opacity="0.8" clip-path="url(#zMkDLQJRwKuO)"/><path fill="rgb(253,231,36)" stroke="none" paint-order="stroke" d="M 202.60000944137573 302.9332580566406 A 6.362735271453857 6.362735271453857 0 1 1 202.60000626000837 302.92689532242963" fill-opacity="0.8" clip-path="url(#zMkDLQJRwKuO)"/><path fill="rgb(253,231,36)" stroke="none" paint-order="stroke" d="M 121.93698453903198 431.0466613769531 A 6.362735271453857 6.362735271453857 0 1 1 121.9369813576646 431.04029864274213" fill-opacity="0.8" clip-path="url(#zMkDLQJRwKuO)"/><path fill="rgb(253,231,36)" stroke="none" paint-order="stroke" d="M 451.08536100387573 189.21128845214844 A 6.362735271453857 6.362735271453857 0 1 1 451.08535782250834 189.20492571793744" fill-opacity="0.8" clip-path="url(#zMkDLQJRwKuO)"/><path fill="rgb(253,231,36)" stroke="none" paint-order="stroke" d="M 153.95746183395386 275.21429443359375 A 6.362735271453857 6.362735271453857 0 1 1 153.9574586525865 275.20793169938275" fill-opacity="0.8" clip-path="url(#zMkDLQJRwKuO)"/><path fill="rgb(253,231,36)" stroke="none" paint-order="stroke" d="M 365.17068815231323 325.4240417480469 A 6.362735271453857 6.362735271453857 0 1 1 365.17068497094584 325.4176790138359" fill-opacity="0.8" clip-path="url(#zMkDLQJRwKuO)"/><path fill="rgb(253,231,36)" stroke="none" paint-order="stroke" d="M 387.3399691581726 380.2663879394531 A 6.362735271453857 6.362735271453857 0 1 1 387.3399659768052 380.26002520524213" fill-opacity="0.8" clip-path="url(#zMkDLQJRwKuO)"/><path fill="rgb(253,231,36)" stroke="none" paint-order="stroke" d="M 444.1756319999695 343.54278564453125 A 6.362735271453857 6.362735271453857 0 1 1 444.1756288186021 343.53642291032025" fill-opacity="0.8" clip-path="url(#zMkDLQJRwKuO)"/><path fill="rgb(253,231,36)" stroke="none" paint-order="stroke" d="M 395.59085416793823 397.4302673339844 A 6.362735271453857 6.362735271453857 0 1 1 395.59085098657084 397.4239045997734" fill-opacity="0.8" clip-path="url(#zMkDLQJRwKuO)"/><path fill="rgb(253,231,36)" stroke="none" paint-order="stroke" d="M 349.8501009941101 253.9024658203125 A 6.362735271453857 6.362735271453857 0 1 1 349.8500978127427 253.8961030861015" fill-opacity="0.8" clip-path="url(#zMkDLQJRwKuO)"/><path fill="rgb(253,231,36)" stroke="none" paint-order="stroke" d="M 352.7852511405945 191.42417907714844 A 6.362735271453857 6.362735271453857 0 1 1 352.7852479592271 191.41781634293744" fill-opacity="0.8" clip-path="url(#zMkDLQJRwKuO)"/><path fill="rgb(253,231,36)" stroke="none" paint-order="stroke" d="M 391.49295377731323 214.750244140625 A 6.362735271453857 6.362735271453857 0 1 1 391.49295059594584 214.743881406414" fill-opacity="0.8" clip-path="url(#zMkDLQJRwKuO)"/><path fill="rgb(253,231,36)" stroke="none" paint-order="stroke" d="M 174.58807706832886 287.2659606933594 A 6.362735271453857 6.362735271453857 0 1 1 174.5880738869615 287.2595979591484" fill-opacity="0.8" clip-path="url(#zMkDLQJRwKuO)"/><path fill="rgb(253,231,36)" stroke="none" paint-order="stroke" d="M 391.33706998825073 261.9849548339844 A 6.362735271453857 6.362735271453857 0 1 1 391.33706680688334 261.9785920997734" fill-opacity="0.8" clip-path="url(#zMkDLQJRwKuO)"/><path fill="rgb(253,231,36)" stroke="none" paint-order="stroke" d="M 69.99909925460815 372.11004638671875 A 6.362735271453857 6.362735271453857 0 1 1 69.99909607324078 372.10368365250775" fill-opacity="0.8" clip-path="url(#zMkDLQJRwKuO)"/><path fill="rgb(253,231,36)" stroke="none" paint-order="stroke" d="M 199.8387942314148 322.32049560546875 A 6.362735271453857 6.362735271453857 0 1 1 199.83879105004743 322.31413287125775" fill-opacity="0.8" clip-path="url(#zMkDLQJRwKuO)"/><path fill="rgb(253,231,36)" stroke="none" paint-order="stroke" d="M 396.28961515426636 243.3904571533203 A 6.362735271453857 6.362735271453857 0 1 1 396.28961197289897 243.38409441910932" fill-opacity="0.8" clip-path="url(#zMkDLQJRwKuO)"/><path fill="rgb(253,231,36)" stroke="none" paint-order="stroke" d="M 299.55765104293823 553.5 A 6.362735271453857 6.362735271453857 0 1 1 299.55764786157084 553.493637265789" fill-opacity="0.8" clip-path="url(#zMkDLQJRwKuO)"/><path fill="rgb(253,231,36)" stroke="none" paint-order="stroke" d="M 172.35618925094604 354.5909118652344 A 6.362735271453857 6.362735271453857 0 1 1 172.35618606957868 354.5845491310234" fill-opacity="0.8" clip-path="url(#zMkDLQJRwKuO)"/><path fill="rgb(253,231,36)" stroke="none" paint-order="stroke" d="M 391.5135531425476 149.2139892578125 A 6.362735271453857 6.362735271453857 0 1 1 391.5135499611802 149.2076265236015" fill-opacity="0.8" clip-path="url(#zMkDLQJRwKuO)"/><path fill="rgb(253,231,36)" stroke="none" paint-order="stroke" d="M 77.01898527145386 388.7322998046875 A 6.362735271453857 6.362735271453857 0 1 1 77.01898209008648 388.7259370704765" fill-opacity="0.8" clip-path="url(#zMkDLQJRwKuO)"/><path fill="rgb(253,231,36)" stroke="none" paint-order="stroke" d="M 312.7476840019226 544.3438720703125 A 6.362735271453857 6.362735271453857 0 1 1 312.7476808205552 544.3375093361014" fill-opacity="0.8" clip-path="url(#zMkDLQJRwKuO)"/><path fill="rgb(253,231,36)" stroke="none" paint-order="stroke" d="M 476.542209148407 317.41864013671875 A 6.362735271453857 6.362735271453857 0 1 1 476.5422059670396 317.41227740250775" fill-opacity="0.8" clip-path="url(#zMkDLQJRwKuO)"/><path fill="rgb(253,231,36)" stroke="none" paint-order="stroke" d="M 452.35638761520386 317.6693420410156 A 6.362735271453857 6.362735271453857 0 1 1 452.35638443383647 317.66297930680463" fill-opacity="0.8" clip-path="url(#zMkDLQJRwKuO)"/><path fill="rgb(68,1,84)" stroke="none" paint-order="stroke" d="M 431.01691007614136 235.27084350585938 A 6.362735271453857 6.362735271453857 0 1 1 431.01690689477397 235.26448077164838" fill-opacity="0.8" clip-path="url(#zMkDLQJRwKuO)"/><path fill="rgb(68,1,84)" stroke="none" paint-order="stroke" d="M 142.57858610153198 439.0770263671875 A 6.362735271453857 6.362735271453857 0 1 1 142.57858292016462 439.0706636329765" fill-opacity="0.8" clip-path="url(#zMkDLQJRwKuO)"/><path fill="rgb(68,1,84)" stroke="none" paint-order="stroke" d="M 328.2007784843445 419.1386413574219 A 6.362735271453857 6.362735271453857 0 1 1 328.2007753029771 419.1322786232109" fill-opacity="0.8" clip-path="url(#zMkDLQJRwKuO)"/><path fill="rgb(68,1,84)" stroke="none" paint-order="stroke" d="M 194.19197416305542 460.44354248046875 A 6.362735271453857 6.362735271453857 0 1 1 194.19197098168806 460.43717974625775" fill-opacity="0.8" clip-path="url(#zMkDLQJRwKuO)"/><path fill="rgb(68,1,84)" stroke="none" paint-order="stroke" d="M 331.2334017753601 128.12950134277344 A 6.362735271453857 6.362735271453857 0 1 1 331.2333985939927 128.12313860856244" fill-opacity="0.8" clip-path="url(#zMkDLQJRwKuO)"/><path fill="rgb(68,1,84)" stroke="none" paint-order="stroke" d="M 394.55743741989136 291.82177734375 A 6.362735271453857 6.362735271453857 0 1 1 394.55743423852397 291.815414609539" fill-opacity="0.8" clip-path="url(#zMkDLQJRwKuO)"/><path fill="rgb(68,1,84)" stroke="none" paint-order="stroke" d="M 320.4228549003601 243.89413452148438 A 6.362735271453857 6.362735271453857 0 1 1 320.4228517189927 243.88777178727338" fill-opacity="0.8" clip-path="url(#zMkDLQJRwKuO)"/><path fill="rgb(68,1,84)" stroke="none" paint-order="stroke" d="M 322.00186491012573 351.0565185546875 A 6.362735271453857 6.362735271453857 0 1 1 322.00186172875834 351.0501558204765" fill-opacity="0.8" clip-path="url(#zMkDLQJRwKuO)"/><path fill="rgb(68,1,84)" stroke="none" paint-order="stroke" d="M 160.08468961715698 458.54486083984375 A 6.362735271453857 6.362735271453857 0 1 1 160.08468643578962 458.53849810563275" fill-opacity="0.8" clip-path="url(#zMkDLQJRwKuO)"/><path fill="rgb(68,1,84)" stroke="none" paint-order="stroke" d="M 274.1469759941101 171.50634765625 A 6.362735271453857 6.362735271453857 0 1 1 274.1469728127427 171.499984922039" fill-opacity="0.8" clip-path="url(#zMkDLQJRwKuO)"/><path fill="rgb(68,1,84)" stroke="none" paint-order="stroke" d="M 336.06155729293823 295.2720642089844 A 6.362735271453857 6.362735271453857 0 1 1 336.06155411157084 295.2657014747734" fill-opacity="0.8" clip-path="url(#zMkDLQJRwKuO)"/><path fill="rgb(68,1,84)" stroke="none" paint-order="stroke" d="M 194.82843351364136 356.6266784667969 A 6.362735271453857 6.362735271453857 0 1 1 194.828430332274 356.6203157325859" fill-opacity="0.8" clip-path="url(#zMkDLQJRwKuO)"/><path fill="rgb(68,1,84)" stroke="none" paint-order="stroke" d="M 135.07765531539917 186.97589111328125 A 6.362735271453857 6.362735271453857 0 1 1 135.0776521340318 186.96952837907025" fill-opacity="0.8" clip-path="url(#zMkDLQJRwKuO)"/><path fill="rgb(68,1,84)" stroke="none" paint-order="stroke" d="M 90.05894041061401 411.1259765625 A 6.362735271453857 6.362735271453857 0 1 1 90.05893722924664 411.119613828289" fill-opacity="0.8" clip-path="url(#zMkDLQJRwKuO)"/><path fill="rgb(68,1,84)" stroke="none" paint-order="stroke" d="M 402.25870084762573 190.44580078125 A 6.362735271453857 6.362735271453857 0 1 1 402.25869766625834 190.439438047039" fill-opacity="0.8" clip-path="url(#zMkDLQJRwKuO)"/><path fill="rgb(68,1,84)" stroke="none" paint-order="stroke" d="M 249.60570096969604 167.24620056152344 A 6.362735271453857 6.362735271453857 0 1 1 249.60569778832868 167.23983782731244" fill-opacity="0.8" clip-path="url(#zMkDLQJRwKuO)"/><path fill="rgb(68,1,84)" stroke="none" paint-order="stroke" d="M 328.15362882614136 437.3937072753906 A 6.362735271453857 6.362735271453857 0 1 1 328.15362564477397 437.38734454117963" fill-opacity="0.8" clip-path="url(#zMkDLQJRwKuO)"/><path fill="rgb(68,1,84)" stroke="none" paint-order="stroke" d="M 289.73370695114136 176.60977172851562 A 6.362735271453857 6.362735271453857 0 1 1 289.73370376977397 176.60340899430463" fill-opacity="0.8" clip-path="url(#zMkDLQJRwKuO)"/><path fill="rgb(68,1,84)" stroke="none" paint-order="stroke" d="M 548.4043002128601 182.55783081054688 A 6.362735271453857 6.362735271453857 0 1 1 548.4042970314928 182.55146807633588" fill-opacity="0.8" clip-path="url(#zMkDLQJRwKuO)"/><path fill="rgb(68,1,84)" stroke="none" paint-order="stroke" d="M 284.83047819137573 253.9629364013672 A 6.362735271453857 6.362735271453857 0 1 1 284.83047501000834 253.9565736671562" fill-opacity="0.8" clip-path="url(#zMkDLQJRwKuO)"/><path fill="rgb(68,1,84)" stroke="none" paint-order="stroke" d="M 306.64798307418823 70.39492797851562 A 6.362735271453857 6.362735271453857 0 1 1 306.64797989282084 70.38856524430463" fill-opacity="0.8" clip-path="url(#zMkDLQJRwKuO)"/><path fill="rgb(68,1,84)" stroke="none" paint-order="stroke" d="M 313.4786105155945 53.5 A 6.362735271453857 6.362735271453857 0 1 1 313.4786073342271 53.493637265789" fill-opacity="0.8" clip-path="url(#zMkDLQJRwKuO)"/><path fill="rgb(68,1,84)" stroke="none" paint-order="stroke" d="M 326.2440218925476 278.728271484375 A 6.362735271453857 6.362735271453857 0 1 1 326.2440187111802 278.721908750164" fill-opacity="0.8" clip-path="url(#zMkDLQJRwKuO)"/><path fill="rgb(68,1,84)" stroke="none" paint-order="stroke" d="M 190.69784879684448 485.62884521484375 A 6.362735271453857 6.362735271453857 0 1 1 190.69784561547712 485.62248248063275" fill-opacity="0.8" clip-path="url(#zMkDLQJRwKuO)"/><path fill="rgb(68,1,84)" stroke="none" paint-order="stroke" d="M 137.08331632614136 168.80154418945312 A 6.362735271453857 6.362735271453857 0 1 1 137.083313144774 168.79518145524213" fill-opacity="0.8" clip-path="url(#zMkDLQJRwKuO)"/><path fill="rgb(68,1,84)" stroke="none" paint-order="stroke" d="M 298.620822429657 293.3692321777344 A 6.362735271453857 6.362735271453857 0 1 1 298.6208192482896 293.3628694435234" fill-opacity="0.8" clip-path="url(#zMkDLQJRwKuO)"/><path fill="rgb(68,1,84)" stroke="none" paint-order="stroke" d="M 338.58636808395386 218.65774536132812 A 6.362735271453857 6.362735271453857 0 1 1 338.58636490258647 218.65138262711713" fill-opacity="0.8" clip-path="url(#zMkDLQJRwKuO)"/><path fill="rgb(68,1,84)" stroke="none" paint-order="stroke" d="M 334.603000164032 323.07763671875 A 6.362735271453857 6.362735271453857 0 1 1 334.6029969826646 323.071273984539" fill-opacity="0.8" clip-path="url(#zMkDLQJRwKuO)"/><path fill="rgb(68,1,84)" stroke="none" paint-order="stroke" d="M 303.212131023407 222.85610961914062 A 6.362735271453857 6.362735271453857 0 1 1 303.2121278420396 222.84974688492963" fill-opacity="0.8" clip-path="url(#zMkDLQJRwKuO)"/><path fill="rgb(68,1,84)" stroke="none" paint-order="stroke" d="M 293.05948209762573 130.4775390625 A 6.362735271453857 6.362735271453857 0 1 1 293.05947891625834 130.471176328289" fill-opacity="0.8" clip-path="url(#zMkDLQJRwKuO)"/><path fill="none" stroke="none"/><text fill="rgb(68,68,68)" stroke="none" font-family="helvetica" font-size="9pt" font-style="normal" font-weight="normal" text-decoration="normal" x="0" y="0" text-anchor="start" dominant-baseline="text-after-edge" transform="matrix(1, 0, 0, 1, 224.92530822753906, 285.019287109375)" fill-opacity="1">FLAG_GFI1</text><path fill="none" stroke="none"/><text fill="rgb(68,68,68)" stroke="none" font-family="helvetica" font-size="9pt" font-style="normal" font-weight="normal" text-decoration="normal" x="0" y="0" text-anchor="start" dominant-baseline="text-after-edge" transform="matrix(1, 0, 0, 1, 551.3636474609375, 195.30877685546875)" fill-opacity="1">CEBPA</text><path fill="none" stroke="none"/><text fill="rgb(68,68,68)" stroke="none" font-family="helvetica" font-size="9pt" font-style="normal" font-weight="normal" text-decoration="normal" x="0" y="0" text-anchor="start" dominant-baseline="text-after-edge" transform="matrix(1, 0, 0, 1, 201.40142822265625, 414.8776550292969)" fill-opacity="1">HOXA9</text><path fill="none" stroke="none"/><text fill="rgb(68,68,68)" stroke="none" font-family="helvetica" font-size="9pt" font-style="normal" font-weight="normal" text-decoration="normal" x="0" y="0" text-anchor="start" dominant-baseline="text-after-edge" transform="matrix(1, 0, 0, 1, 451.0377197265625, 241.50990295410156)" fill-opacity="1">PLAGL2</text><path fill="none" stroke="none"/><text fill="rgb(68,68,68)" stroke="none" font-family="helvetica" font-size="9pt" font-style="normal" font-weight="normal" text-decoration="normal" x="0" y="0" text-anchor="start" dominant-baseline="text-after-edge" transform="matrix(1, 0, 0, 1, 202.9920654296875, 390.919677734375)" fill-opacity="1">MEIS1</text><path fill="none" stroke="none"/><text fill="rgb(68,68,68)" stroke="none" font-family="helvetica" font-size="9pt" font-style="normal" font-weight="normal" text-decoration="normal" x="0" y="0" text-anchor="start" dominant-baseline="text-after-edge" transform="matrix(1, 0, 0, 1, 454.9266662597656, 164.09259033203125)" fill-opacity="1">ETV6</text><path fill="none" stroke="none"/><text fill="rgb(68,68,68)" stroke="none" font-family="helvetica" font-size="9pt" font-style="normal" font-weight="normal" text-decoration="normal" x="0" y="0" text-anchor="start" dominant-baseline="text-after-edge" transform="matrix(1, 0, 0, 1, 201.23727416992188, 297.9332580566406)" fill-opacity="1">RUNX1</text><path fill="none" stroke="none"/><text fill="rgb(68,68,68)" stroke="none" font-family="helvetica" font-size="9pt" font-style="normal" font-weight="normal" text-decoration="normal" x="0" y="0" text-anchor="start" dominant-baseline="text-after-edge" transform="matrix(1, 0, 0, 1, 120.57424926757812, 426.0466613769531)" fill-opacity="1">FOSL2</text><path fill="none" stroke="none"/><text fill="rgb(68,68,68)" stroke="none" font-family="helvetica" font-size="9pt" font-style="normal" font-weight="normal" text-decoration="normal" x="0" y="0" text-anchor="start" dominant-baseline="text-after-edge" transform="matrix(1, 0, 0, 1, 449.7226257324219, 184.21128845214844)" fill-opacity="1">FLI1</text><path fill="none" stroke="none"/><text fill="rgb(68,68,68)" stroke="none" font-family="helvetica" font-size="9pt" font-style="normal" font-weight="normal" text-decoration="normal" x="0" y="0" text-anchor="start" dominant-baseline="text-after-edge" transform="matrix(1, 0, 0, 1, 152.5947265625, 270.21429443359375)" fill-opacity="1">GATA2</text><path fill="none" stroke="none"/><text fill="rgb(68,68,68)" stroke="none" font-family="helvetica" font-size="9pt" font-style="normal" font-weight="normal" text-decoration="normal" x="0" y="0" text-anchor="start" dominant-baseline="text-after-edge" transform="matrix(1, 0, 0, 1, 363.8079528808594, 320.4240417480469)" fill-opacity="1">SP1</text><path fill="none" stroke="none"/><text fill="rgb(68,68,68)" stroke="none" font-family="helvetica" font-size="9pt" font-style="normal" font-weight="normal" text-decoration="normal" x="0" y="0" text-anchor="start" dominant-baseline="text-after-edge" transform="matrix(1, 0, 0, 1, 385.97723388671875, 375.2663879394531)" fill-opacity="1">E2F3</text><path fill="none" stroke="none"/><text fill="rgb(68,68,68)" stroke="none" font-family="helvetica" font-size="9pt" font-style="normal" font-weight="normal" text-decoration="normal" x="0" y="0" text-anchor="start" dominant-baseline="text-after-edge" transform="matrix(1, 0, 0, 1, 442.8128967285156, 338.54278564453125)" fill-opacity="1">ZNF281</text><path fill="none" stroke="none"/><text fill="rgb(68,68,68)" stroke="none" font-family="helvetica" font-size="9pt" font-style="normal" font-weight="normal" text-decoration="normal" x="0" y="0" text-anchor="start" dominant-baseline="text-after-edge" transform="matrix(1, 0, 0, 1, 394.2281188964844, 392.4302673339844)" fill-opacity="1">SREBF1</text><path fill="none" stroke="none"/><text fill="rgb(68,68,68)" stroke="none" font-family="helvetica" font-size="9pt" font-style="normal" font-weight="normal" text-decoration="normal" x="0" y="0" text-anchor="start" dominant-baseline="text-after-edge" transform="matrix(1, 0, 0, 1, 348.48736572265625, 248.9024658203125)" fill-opacity="1">LMO2</text><path fill="none" stroke="none"/><text fill="rgb(68,68,68)" stroke="none" font-family="helvetica" font-size="9pt" font-style="normal" font-weight="normal" text-decoration="normal" x="0" y="0" text-anchor="start" dominant-baseline="text-after-edge" transform="matrix(1, 0, 0, 1, 351.4225158691406, 186.42417907714844)" fill-opacity="1">STAT5B</text><path fill="none" stroke="none"/><text fill="rgb(68,68,68)" stroke="none" font-family="helvetica" font-size="9pt" font-style="normal" font-weight="normal" text-decoration="normal" x="0" y="0" text-anchor="start" dominant-baseline="text-after-edge" transform="matrix(1, 0, 0, 1, 390.1302185058594, 209.750244140625)" fill-opacity="1">ZMYND8</text><path fill="none" stroke="none"/><text fill="rgb(68,68,68)" stroke="none" font-family="helvetica" font-size="9pt" font-style="normal" font-weight="normal" text-decoration="normal" x="0" y="0" text-anchor="start" dominant-baseline="text-after-edge" transform="matrix(1, 0, 0, 1, 173.225341796875, 282.2659606933594)" fill-opacity="1">LYL1</text><path fill="none" stroke="none"/><text fill="rgb(68,68,68)" stroke="none" font-family="helvetica" font-size="9pt" font-style="normal" font-weight="normal" text-decoration="normal" x="0" y="0" text-anchor="start" dominant-baseline="text-after-edge" transform="matrix(1, 0, 0, 1, 389.9743347167969, 256.9849548339844)" fill-opacity="1">MYC</text><path fill="none" stroke="none"/><text fill="rgb(68,68,68)" stroke="none" font-family="helvetica" font-size="9pt" font-style="normal" font-weight="normal" text-decoration="normal" x="0" y="0" text-anchor="start" dominant-baseline="text-after-edge" transform="matrix(1, 0, 0, 1, 68.6363639831543, 367.11004638671875)" fill-opacity="1">TFAP4</text><path fill="none" stroke="none"/><text fill="rgb(68,68,68)" stroke="none" font-family="helvetica" font-size="9pt" font-style="normal" font-weight="normal" text-decoration="normal" x="0" y="0" text-anchor="start" dominant-baseline="text-after-edge" transform="matrix(1, 0, 0, 1, 198.47605895996094, 317.32049560546875)" fill-opacity="1">RUNX2</text><path fill="none" stroke="none"/><text fill="rgb(68,68,68)" stroke="none" font-family="helvetica" font-size="9pt" font-style="normal" font-weight="normal" text-decoration="normal" x="0" y="0" text-anchor="start" dominant-baseline="text-after-edge" transform="matrix(1, 0, 0, 1, 394.9268798828125, 238.3904571533203)" fill-opacity="1">MAX</text><path fill="none" stroke="none"/><text fill="rgb(68,68,68)" stroke="none" font-family="helvetica" font-size="9pt" font-style="normal" font-weight="normal" text-decoration="normal" x="0" y="0" text-anchor="start" dominant-baseline="text-after-edge" transform="matrix(1, 0, 0, 1, 298.1949157714844, 548.5)" fill-opacity="1">IRF8</text><path fill="none" stroke="none"/><text fill="rgb(68,68,68)" stroke="none" font-family="helvetica" font-size="9pt" font-style="normal" font-weight="normal" text-decoration="normal" x="0" y="0" text-anchor="start" dominant-baseline="text-after-edge" transform="matrix(1, 0, 0, 1, 170.9934539794922, 349.5909118652344)" fill-opacity="1">MYB</text><path fill="none" stroke="none"/><text fill="rgb(68,68,68)" stroke="none" font-family="helvetica" font-size="9pt" font-style="normal" font-weight="normal" text-decoration="normal" x="0" y="0" text-anchor="start" dominant-baseline="text-after-edge" transform="matrix(1, 0, 0, 1, 390.15081787109375, 144.2139892578125)" fill-opacity="1">ZEB2</text><path fill="none" stroke="none"/><text fill="rgb(68,68,68)" stroke="none" font-family="helvetica" font-size="9pt" font-style="normal" font-weight="normal" text-decoration="normal" x="0" y="0" text-anchor="start" dominant-baseline="text-after-edge" transform="matrix(1, 0, 0, 1, 75.65625, 383.7322998046875)" fill-opacity="1">RXRA</text><path fill="none" stroke="none"/><text fill="rgb(68,68,68)" stroke="none" font-family="helvetica" font-size="9pt" font-style="normal" font-weight="normal" text-decoration="normal" x="0" y="0" text-anchor="start" dominant-baseline="text-after-edge" transform="matrix(1, 0, 0, 1, 311.38494873046875, 539.3438720703125)" fill-opacity="1">SPI1</text><path fill="none" stroke="none"/><text fill="rgb(68,68,68)" stroke="none" font-family="helvetica" font-size="9pt" font-style="normal" font-weight="normal" text-decoration="normal" x="0" y="0" text-anchor="start" dominant-baseline="text-after-edge" transform="matrix(1, 0, 0, 1, 475.1794738769531, 312.41864013671875)" fill-opacity="1">MEF2C</text><path fill="none" stroke="none"/><text fill="rgb(68,68,68)" stroke="none" font-family="helvetica" font-size="9pt" font-style="normal" font-weight="normal" text-decoration="normal" x="0" y="0" text-anchor="start" dominant-baseline="text-after-edge" transform="matrix(1, 0, 0, 1, 450.99365234375, 312.6693420410156)" fill-opacity="1">FLAG_MEF2D</text><path fill="none" stroke="none"/><text fill="rgb(68,68,68)" stroke="none" font-family="helvetica" font-size="9pt" font-style="normal" font-weight="normal" text-decoration="normal" x="0" y="0" text-anchor="start" dominant-baseline="text-after-edge" transform="matrix(1, 0, 0, 1, 429.6541748046875, 230.27084350585938)" fill-opacity="1">ELF2</text><path fill="none" stroke="none"/><text fill="rgb(68,68,68)" stroke="none" font-family="helvetica" font-size="9pt" font-style="normal" font-weight="normal" text-decoration="normal" x="0" y="0" text-anchor="start" dominant-baseline="text-after-edge" transform="matrix(1, 0, 0, 1, 141.21585083007812, 434.0770263671875)" fill-opacity="1">JUND</text><path fill="none" stroke="none"/><text fill="rgb(68,68,68)" stroke="none" font-family="helvetica" font-size="9pt" font-style="normal" font-weight="normal" text-decoration="normal" x="0" y="0" text-anchor="start" dominant-baseline="text-after-edge" transform="matrix(1, 0, 0, 1, 326.8380432128906, 414.1386413574219)" fill-opacity="1">SMC1</text><path fill="none" stroke="none"/><text fill="rgb(68,68,68)" stroke="none" font-family="helvetica" font-size="9pt" font-style="normal" font-weight="normal" text-decoration="normal" x="0" y="0" text-anchor="start" dominant-baseline="text-after-edge" transform="matrix(1, 0, 0, 1, 192.82923889160156, 455.44354248046875)" fill-opacity="1">LDB1</text><path fill="none" stroke="none"/><text fill="rgb(68,68,68)" stroke="none" font-family="helvetica" font-size="9pt" font-style="normal" font-weight="normal" text-decoration="normal" x="0" y="0" text-anchor="start" dominant-baseline="text-after-edge" transform="matrix(1, 0, 0, 1, 329.87066650390625, 123.12950134277344)" fill-opacity="1">H3K79me2</text><path fill="none" stroke="none"/><text fill="rgb(68,68,68)" stroke="none" font-family="helvetica" font-size="9pt" font-style="normal" font-weight="normal" text-decoration="normal" x="0" y="0" text-anchor="start" dominant-baseline="text-after-edge" transform="matrix(1, 0, 0, 1, 393.1947021484375, 286.82177734375)" fill-opacity="1">WDR5</text><path fill="none" stroke="none"/><text fill="rgb(68,68,68)" stroke="none" font-family="helvetica" font-size="9pt" font-style="normal" font-weight="normal" text-decoration="normal" x="0" y="0" text-anchor="start" dominant-baseline="text-after-edge" transform="matrix(1, 0, 0, 1, 319.06011962890625, 238.89413452148438)" fill-opacity="1">H3K27ac</text><path fill="none" stroke="none"/><text fill="rgb(68,68,68)" stroke="none" font-family="helvetica" font-size="9pt" font-style="normal" font-weight="normal" text-decoration="normal" x="0" y="0" text-anchor="start" dominant-baseline="text-after-edge" transform="matrix(1, 0, 0, 1, 320.6391296386719, 346.0565185546875)" fill-opacity="1">H3K27me3</text><path fill="none" stroke="none"/><text fill="rgb(68,68,68)" stroke="none" font-family="helvetica" font-size="9pt" font-style="normal" font-weight="normal" text-decoration="normal" x="0" y="0" text-anchor="start" dominant-baseline="text-after-edge" transform="matrix(1, 0, 0, 1, 158.72195434570312, 453.54486083984375)" fill-opacity="1">MYBL2</text><path fill="none" stroke="none"/><text fill="rgb(68,68,68)" stroke="none" font-family="helvetica" font-size="9pt" font-style="normal" font-weight="normal" text-decoration="normal" x="0" y="0" text-anchor="start" dominant-baseline="text-after-edge" transform="matrix(1, 0, 0, 1, 272.78424072265625, 166.50634765625)" fill-opacity="1">CDK9</text><path fill="none" stroke="none"/><text fill="rgb(68,68,68)" stroke="none" font-family="helvetica" font-size="9pt" font-style="normal" font-weight="normal" text-decoration="normal" x="0" y="0" text-anchor="start" dominant-baseline="text-after-edge" transform="matrix(1, 0, 0, 1, 334.6988220214844, 290.2720642089844)" fill-opacity="1">H3K4me3</text><path fill="none" stroke="none"/><text fill="rgb(68,68,68)" stroke="none" font-family="helvetica" font-size="9pt" font-style="normal" font-weight="normal" text-decoration="normal" x="0" y="0" text-anchor="start" dominant-baseline="text-after-edge" transform="matrix(1, 0, 0, 1, 193.4656982421875, 351.6266784667969)" fill-opacity="1">FOXP1</text><path fill="none" stroke="none"/><text fill="rgb(68,68,68)" stroke="none" font-family="helvetica" font-size="9pt" font-style="normal" font-weight="normal" text-decoration="normal" x="0" y="0" text-anchor="start" dominant-baseline="text-after-edge" transform="matrix(1, 0, 0, 1, 133.7149200439453, 181.97589111328125)" fill-opacity="1">MLL_KTM2A</text><path fill="none" stroke="none"/><text fill="rgb(68,68,68)" stroke="none" font-family="helvetica" font-size="9pt" font-style="normal" font-weight="normal" text-decoration="normal" x="0" y="0" text-anchor="start" dominant-baseline="text-after-edge" transform="matrix(1, 0, 0, 1, 88.69620513916016, 406.1259765625)" fill-opacity="1">RARA</text><path fill="none" stroke="none"/><text fill="rgb(68,68,68)" stroke="none" font-family="helvetica" font-size="9pt" font-style="normal" font-weight="normal" text-decoration="normal" x="0" y="0" text-anchor="start" dominant-baseline="text-after-edge" transform="matrix(1, 0, 0, 1, 400.8959655761719, 185.44580078125)" fill-opacity="1">IKZF1</text><path fill="none" stroke="none"/><text fill="rgb(68,68,68)" stroke="none" font-family="helvetica" font-size="9pt" font-style="normal" font-weight="normal" text-decoration="normal" x="0" y="0" text-anchor="start" dominant-baseline="text-after-edge" transform="matrix(1, 0, 0, 1, 248.2429656982422, 162.24620056152344)" fill-opacity="1">AFF4</text><path fill="none" stroke="none"/><text fill="rgb(68,68,68)" stroke="none" font-family="helvetica" font-size="9pt" font-style="normal" font-weight="normal" text-decoration="normal" x="0" y="0" text-anchor="start" dominant-baseline="text-after-edge" transform="matrix(1, 0, 0, 1, 326.7908935546875, 432.3937072753906)" fill-opacity="1">CTCF</text><path fill="none" stroke="none"/><text fill="rgb(68,68,68)" stroke="none" font-family="helvetica" font-size="9pt" font-style="normal" font-weight="normal" text-decoration="normal" x="0" y="0" text-anchor="start" dominant-baseline="text-after-edge" transform="matrix(1, 0, 0, 1, 288.3709716796875, 171.60977172851562)" fill-opacity="1">BRD4</text><path fill="none" stroke="none"/><text fill="rgb(68,68,68)" stroke="none" font-family="helvetica" font-size="9pt" font-style="normal" font-weight="normal" text-decoration="normal" x="0" y="0" text-anchor="start" dominant-baseline="text-after-edge" transform="matrix(1, 0, 0, 1, 547.0415649414062, 177.55783081054688)" fill-opacity="1">CEBPB</text><path fill="none" stroke="none"/><text fill="rgb(68,68,68)" stroke="none" font-family="helvetica" font-size="9pt" font-style="normal" font-weight="normal" text-decoration="normal" x="0" y="0" text-anchor="start" dominant-baseline="text-after-edge" transform="matrix(1, 0, 0, 1, 283.4677429199219, 248.9629364013672)" fill-opacity="1">H3K36me2</text><path fill="none" stroke="none"/><text fill="rgb(68,68,68)" stroke="none" font-family="helvetica" font-size="9pt" font-style="normal" font-weight="normal" text-decoration="normal" x="0" y="0" text-anchor="start" dominant-baseline="text-after-edge" transform="matrix(1, 0, 0, 1, 305.2852478027344, 65.39492797851562)" fill-opacity="1">PSER2</text><path fill="none" stroke="none"/><text fill="rgb(68,68,68)" stroke="none" font-family="helvetica" font-size="9pt" font-style="normal" font-weight="normal" text-decoration="normal" x="0" y="0" text-anchor="start" dominant-baseline="text-after-edge" transform="matrix(1, 0, 0, 1, 312.1158752441406, 48.5)" fill-opacity="1">H3K36me3</text><path fill="none" stroke="none"/><text fill="rgb(68,68,68)" stroke="none" font-family="helvetica" font-size="9pt" font-style="normal" font-weight="normal" text-decoration="normal" x="0" y="0" text-anchor="start" dominant-baseline="text-after-edge" transform="matrix(1, 0, 0, 1, 324.88128662109375, 273.728271484375)" fill-opacity="1">H3K9ac</text><path fill="none" stroke="none"/><text fill="rgb(68,68,68)" stroke="none" font-family="helvetica" font-size="9pt" font-style="normal" font-weight="normal" text-decoration="normal" x="0" y="0" text-anchor="start" dominant-baseline="text-after-edge" transform="matrix(1, 0, 0, 1, 189.33511352539062, 480.62884521484375)" fill-opacity="1">CDK13</text><path fill="none" stroke="none"/><text fill="rgb(68,68,68)" stroke="none" font-family="helvetica" font-size="9pt" font-style="normal" font-weight="normal" text-decoration="normal" x="0" y="0" text-anchor="start" dominant-baseline="text-after-edge" transform="matrix(1, 0, 0, 1, 135.7205810546875, 163.80154418945312)" fill-opacity="1">H3K4me1</text><path fill="none" stroke="none"/><text fill="rgb(68,68,68)" stroke="none" font-family="helvetica" font-size="9pt" font-style="normal" font-weight="normal" text-decoration="normal" x="0" y="0" text-anchor="start" dominant-baseline="text-after-edge" transform="matrix(1, 0, 0, 1, 297.2580871582031, 288.3692321777344)" fill-opacity="1">POLII</text><path fill="none" stroke="none"/><text fill="rgb(68,68,68)" stroke="none" font-family="helvetica" font-size="9pt" font-style="normal" font-weight="normal" text-decoration="normal" x="0" y="0" text-anchor="start" dominant-baseline="text-after-edge" transform="matrix(1, 0, 0, 1, 337.2236328125, 213.65774536132812)" fill-opacity="1">MED1</text><path fill="none" stroke="none"/><text fill="rgb(68,68,68)" stroke="none" font-family="helvetica" font-size="9pt" font-style="normal" font-weight="normal" text-decoration="normal" x="0" y="0" text-anchor="start" dominant-baseline="text-after-edge" transform="matrix(1, 0, 0, 1, 333.2402648925781, 318.07763671875)" fill-opacity="1">promoters</text><path fill="none" stroke="none"/><text fill="rgb(68,68,68)" stroke="none" font-family="helvetica" font-size="9pt" font-style="normal" font-weight="normal" text-decoration="normal" x="0" y="0" text-anchor="start" dominant-baseline="text-after-edge" transform="matrix(1, 0, 0, 1, 301.8493957519531, 217.85610961914062)" fill-opacity="1">enhancer</text><path fill="none" stroke="none"/><text fill="rgb(68,68,68)" stroke="none" font-family="helvetica" font-size="9pt" font-style="normal" font-weight="normal" text-decoration="normal" x="0" y="0" text-anchor="start" dominant-baseline="text-after-edge" transform="matrix(1, 0, 0, 1, 291.6967468261719, 125.4775390625)" fill-opacity="1">super_enhancer</text><path fill="none" stroke="rgb(0,0,0)" paint-order="fill" d="M 39.5 578.5 L 570.5 578.5" stroke-opacity="1" stroke-linejoin="bevel" stroke-miterlimit="10" stroke-dasharray=""/><path fill="none" stroke="rgb(0,0,0)" paint-order="fill" d="M 46.5 584.5 L 46.5 576.5 M 173.5 584.5 L 173.5 576.5 M 300.5 584.5 L 300.5 576.5 M 427.5 584.5 L 427.5 576.5 M 555.5 584.5 L 555.5 576.5" stroke-opacity="1" stroke-linejoin="bevel" stroke-miterlimit="10" stroke-dasharray=""/><path fill="none" stroke="rgb(0,0,0)" paint-order="fill" d="M 46.5 582.5 L 46.5 578.5 M 71.5 582.5 L 71.5 578.5 M 97.5 582.5 L 97.5 578.5 M 122.5 582.5 L 122.5 578.5 M 148.5 582.5 L 148.5 578.5 M 173.5 582.5 L 173.5 578.5 M 198.5 582.5 L 198.5 578.5 M 224.5 582.5 L 224.5 578.5 M 249.5 582.5 L 249.5 578.5 M 275.5 582.5 L 275.5 578.5 M 300.5 582.5 L 300.5 578.5 M 326.5 582.5 L 326.5 578.5 M 351.5 582.5 L 351.5 578.5 M 377.5 582.5 L 377.5 578.5 M 402.5 582.5 L 402.5 578.5 M 427.5 582.5 L 427.5 578.5 M 453.5 582.5 L 453.5 578.5 M 478.5 582.5 L 478.5 578.5 M 504.5 582.5 L 504.5 578.5 M 529.5 582.5 L 529.5 578.5 M 555.5 582.5 L 555.5 578.5" stroke-opacity="1" stroke-linejoin="bevel" stroke-miterlimit="10" stroke-dasharray=""/><text fill="rgb(68,68,68)" stroke="none" font-family="helvetica" font-size="11px" font-style="normal" font-weight="normal" text-decoration="normal" x="33.33616828918457" y="597" text-anchor="start" dominant-baseline="alphabetic" transform="matrix(1, 0, 0, 1, 0.5, 0.5)" fill-opacity="1">−200</text><text fill="rgb(68,68,68)" stroke="none" font-family="helvetica" font-size="11px" font-style="normal" font-weight="normal" text-decoration="normal" x="160.59087944030762" y="597" text-anchor="start" dominant-baseline="alphabetic" transform="matrix(1, 0, 0, 1, 0.5, 0.5)" fill-opacity="1">−100</text><text fill="rgb(68,68,68)" stroke="none" font-family="helvetica" font-size="11px" font-style="normal" font-weight="normal" text-decoration="normal" x="297.170578956604" y="597" text-anchor="start" dominant-baseline="alphabetic" transform="matrix(1, 0, 0, 1, 0.5, 0.5)" fill-opacity="1">0</text><text fill="rgb(68,68,68)" stroke="none" font-family="helvetica" font-size="11px" font-style="normal" font-weight="normal" text-decoration="normal" x="418.308611869812" y="597" text-anchor="start" dominant-baseline="alphabetic" transform="matrix(1, 0, 0, 1, 0.5, 0.5)" fill-opacity="1">100</text><text fill="rgb(68,68,68)" stroke="none" font-family="helvetica" font-size="11px" font-style="normal" font-weight="normal" text-decoration="normal" x="545.5633420944214" y="597" text-anchor="start" dominant-baseline="alphabetic" transform="matrix(1, 0, 0, 1, 0.5, 0.5)" fill-opacity="1">200</text><path fill="none" stroke="rgb(0,0,0)" paint-order="fill" d="M 39.5 578.5 L 39.5 28.5" stroke-opacity="1" stroke-linejoin="bevel" stroke-miterlimit="10" stroke-dasharray=""/><path fill="none" stroke="rgb(0,0,0)" paint-order="fill" d="M 33.5 520.5 L 41.5 520.5 M 33.5 443.5 L 41.5 443.5 M 33.5 366.5 L 41.5 366.5 M 33.5 289.5 L 41.5 289.5 M 33.5 213.5 L 41.5 213.5 M 33.5 136.5 L 41.5 136.5 M 33.5 59.5 L 41.5 59.5" stroke-opacity="1" stroke-linejoin="bevel" stroke-miterlimit="10" stroke-dasharray=""/><path fill="none" stroke="rgb(0,0,0)" paint-order="fill" d="M 35.5 535.5 L 39.5 535.5 M 35.5 550.5 L 39.5 550.5 M 35.5 566.5 L 39.5 566.5 M 35.5 520.5 L 39.5 520.5 M 35.5 504.5 L 39.5 504.5 M 35.5 489.5 L 39.5 489.5 M 35.5 473.5 L 39.5 473.5 M 35.5 458.5 L 39.5 458.5 M 35.5 443.5 L 39.5 443.5 M 35.5 427.5 L 39.5 427.5 M 35.5 412.5 L 39.5 412.5 M 35.5 397.5 L 39.5 397.5 M 35.5 381.5 L 39.5 381.5 M 35.5 366.5 L 39.5 366.5 M 35.5 351.5 L 39.5 351.5 M 35.5 335.5 L 39.5 335.5 M 35.5 320.5 L 39.5 320.5 M 35.5 305.5 L 39.5 305.5 M 35.5 289.5 L 39.5 289.5 M 35.5 274.5 L 39.5 274.5 M 35.5 259.5 L 39.5 259.5 M 35.5 243.5 L 39.5 243.5 M 35.5 228.5 L 39.5 228.5 M 35.5 213.5 L 39.5 213.5 M 35.5 197.5 L 39.5 197.5 M 35.5 182.5 L 39.5 182.5 M 35.5 167.5 L 39.5 167.5 M 35.5 151.5 L 39.5 151.5 M 35.5 136.5 L 39.5 136.5 M 35.5 120.5 L 39.5 120.5 M 35.5 105.5 L 39.5 105.5 M 35.5 90.5 L 39.5 90.5 M 35.5 74.5 L 39.5 74.5 M 35.5 59.5 L 39.5 59.5 M 35.5 44.5 L 39.5 44.5 M 35.5 28.5 L 39.5 28.5" stroke-opacity="1" stroke-linejoin="bevel" stroke-miterlimit="10" stroke-dasharray=""/><text fill="rgb(68,68,68)" stroke="none" font-family="helvetica" font-size="11px" font-style="normal" font-weight="normal" text-decoration="normal" x="3.2333335876464844" y="523.5302734375" text-anchor="start" dominant-baseline="alphabetic" transform="matrix(1, 0, 0, 1, 0.5, 0.5)" fill-opacity="1">−150</text><text fill="rgb(68,68,68)" stroke="none" font-family="helvetica" font-size="11px" font-style="normal" font-weight="normal" text-decoration="normal" x="3.2333335876464844" y="446.7923278808594" text-anchor="start" dominant-baseline="alphabetic" transform="matrix(1, 0, 0, 1, 0.5, 0.5)" fill-opacity="1">−100</text><text fill="rgb(68,68,68)" stroke="none" font-family="helvetica" font-size="11px" font-style="normal" font-weight="normal" text-decoration="normal" x="9.350000381469727" y="370.05438232421875" text-anchor="start" dominant-baseline="alphabetic" transform="matrix(1, 0, 0, 1, 0.5, 0.5)" fill-opacity="1">−50</text><text fill="rgb(68,68,68)" stroke="none" font-family="helvetica" font-size="11px" font-style="normal" font-weight="normal" text-decoration="normal" x="21.883333206176758" y="293.31640625" text-anchor="start" dominant-baseline="alphabetic" transform="matrix(1, 0, 0, 1, 0.5, 0.5)" fill-opacity="1">0</text><text fill="rgb(68,68,68)" stroke="none" font-family="helvetica" font-size="11px" font-style="normal" font-weight="normal" text-decoration="normal" x="15.766666412353516" y="216.57843017578125" text-anchor="start" dominant-baseline="alphabetic" transform="matrix(1, 0, 0, 1, 0.5, 0.5)" fill-opacity="1">50</text><text fill="rgb(68,68,68)" stroke="none" font-family="helvetica" font-size="11px" font-style="normal" font-weight="normal" text-decoration="normal" x="9.649999618530273" y="139.84046936035156" text-anchor="start" dominant-baseline="alphabetic" transform="matrix(1, 0, 0, 1, 0.5, 0.5)" fill-opacity="1">100</text><text fill="rgb(68,68,68)" stroke="none" font-family="helvetica" font-size="11px" font-style="normal" font-weight="normal" text-decoration="normal" x="9.649999618530273" y="63.10250473022461" text-anchor="start" dominant-baseline="alphabetic" transform="matrix(1, 0, 0, 1, 0.5, 0.5)" fill-opacity="1">150</text><path fill="none" stroke="none"/><text fill="rgb(68,68,68)" stroke="none" font-family="helvetica" font-size="13px" font-style="normal" font-weight="bold" text-decoration="normal" x="0" y="0" text-anchor="start" dominant-baseline="text-after-edge" transform="matrix(1, 0, 0, 1, 39.5, 23.5)" fill-opacity="1">scatter plot of distance of TF in cobinding space</text></svg>